<?xml version="1.0" standalone="no"?>
<!DOCTYPE svg PUBLIC "-//W3C//DTD SVG 20010904//EN"
 "http://www.w3.org/TR/2001/REC-SVG-20010904/DTD/svg10.dtd">
<svg version="1.0" xmlns="http://www.w3.org/2000/svg"
 width="256.000000pt" height="256.000000pt" viewBox="0 0 256.000000 256.000000"
 preserveAspectRatio="xMidYMid meet">
<metadata>
Created by potrace 1.14, written by Peter Selinger 2001-2017
</metadata>
<g transform="translate(0.000000,256.000000) scale(0.100000,-0.100000)"
fill="#000000" stroke="none">
<path d="M1248 2276 c-1 -2 -50 -6 -108 -10 -58 -3 -118 -9 -135 -12 -16 -4
-39 -8 -50 -9 -11 -2 -21 -4 -22 -5 -2 -2 -6 -3 -10 -4 -43 -11 -118 -39 -160
-60 -29 -14 -57 -26 -62 -26 -5 0 -11 -7 -15 -15 -3 -8 -10 -15 -17 -15 -12 0
-102 -61 -107 -72 -2 -5 -8 -8 -13 -8 -10 0 -139 -130 -139 -140 0 -4 -11 -20
-25 -36 -47 -54 -151 -253 -159 -306 -1 -7 -4 -17 -8 -23 -3 -5 -8 -33 -11
-60 -3 -28 -9 -57 -12 -66 -11 -29 -13 -113 -3 -133 6 -11 6 -16 1 -13 -6 4
-9 -9 -7 -31 3 -54 3 -54 14 -47 6 3 10 1 10 -4 0 -6 -4 -11 -10 -11 -5 0 -10
-5 -10 -11 0 -5 5 -7 12 -3 7 5 8 3 2 -7 -13 -22 -11 -42 10 -73 17 -25 17
-29 3 -23 -11 4 -14 2 -10 -9 3 -7 10 -14 17 -14 6 0 4 -5 -4 -10 -10 -6 -11
-10 -2 -10 7 0 12 -13 12 -33 0 -18 5 -38 12 -45 7 -7 9 -12 5 -12 -3 0 0 -19
9 -42 19 -56 77 -168 86 -168 5 0 8 -7 8 -15 0 -8 5 -15 10 -15 6 0 10 -6 10
-12 0 -22 127 -154 193 -201 120 -86 276 -157 376 -172 20 -3 48 -8 61 -12 32
-8 490 -10 510 -2 8 3 55 16 104 27 274 66 509 259 643 527 34 66 83 216 88
267 2 18 4 33 5 33 7 0 11 64 9 152 -1 39 2 76 5 82 4 6 4 11 -1 11 -4 0 -9
13 -10 28 -1 15 -4 39 -7 52 -3 14 -8 39 -11 55 -19 92 -93 264 -144 331 -9
12 -23 32 -31 45 -46 70 -193 197 -294 254 -82 46 -238 101 -273 97 -2 -1 -17
4 -35 9 -18 5 -89 12 -158 15 -69 3 -130 7 -137 9 -6 2 -13 2 -15 1z m-1044
-1042 c3 -8 2 -12 -4 -9 -6 3 -10 10 -10 16 0 14 7 11 14 -7z"/>
</g>
</svg>
