<svg xmlns="http://www.w3.org/2000/svg" width="369.49" height="606.642" viewBox="0 0 369.49 606.642">
  <g id="layer1" transform="translate(-47.311 -65.49)">
    <g id="g946" transform="translate(47.311 65.49)">
      <path id="path817" d="M164.854,57.3c-1.754.012-2.02.21-2.984,1.364-1.47,1.761-1.712,3.047-1.018,5.434a43.945,43.945,0,0,1,.959,5.847c.441,4.28,1.922,15.72,2.555,19.733.216,1.371.77,5.951,1.23,10.178s1.051,9.087,1.313,10.8a92.224,92.224,0,0,1,.525,9.763l.048,6.646-1.8,2.57a49.046,49.046,0,0,1-5.193,5.791c-7.737,7.354-20.635,19.737-24.4,23.419-6.528,6.393-22.841,22.114-25.247,24.331a17.918,17.918,0,0,0-3.1,3.71,64.679,64.679,0,0,0-5.662,16.2c-.679,4.2-1.118,5.077-2.841,5.645-1.97.65-9.3.272-15.467-.8-2.628-.455-6.179-.949-7.893-1.1a36.97,36.97,0,0,1-4.587-.652c-2.593-.677-14.676-2.112-15.674-1.862-1.266.318-3.544,2.738-8.611,9.148-2.285,2.89-5.011,6.316-6.055,7.612s-3.615,4.576-5.712,7.289c-3.491,4.517-3.811,5.088-3.811,6.775a3.244,3.244,0,0,0,1.338,3.062,6.813,6.813,0,0,0,2.8,1.485,9.941,9.941,0,0,1,2.133.608,49.223,49.223,0,0,0,6.024,1.174c2.946.457,6.572,1.022,8.057,1.254,6.472,1.01,17.027,2.486,19.318,2.7,1.371.129,4.268.511,6.439.847s6.709.909,10.087,1.272c9.917,1.064,11.984,2.086,12.573,6.215a8.994,8.994,0,0,0,3.223,6.1,17.483,17.483,0,0,0,10.721,4.494l3.574.316,4.884,3.266c2.685,1.8,5.363,3.583,5.951,3.971,3.685,2.431,6.68,6.728,6.153,8.828-.2.785-6.991,7.873-20.875,21.78-11.32,11.339-21.218,21.317-22,22.175a4.191,4.191,0,0,0-1.415,2.987c0,1.553.266,1.831,2.23,2.337.716.184,2.609.832,4.208,1.439s4.217,1.441,5.816,1.853,3.257.891,3.684,1.064,3.232.816,6.231,1.433a61.22,61.22,0,0,0,8.29,1.184c2.64.057,3.042-.062,5.816-1.7,6.164-3.641,5.781-3.356,16.689-12.38,3.427-2.835,6.885-5.792,7.685-6.569s3.322-3.026,5.6-5,4.443-3.861,4.8-4.2,2.5-2.305,4.753-4.362,4.6-4.206,5.218-4.777c3.991-3.7,5.064-4.626,6.495-5.573A10.3,10.3,0,0,1,185.33,291a13.036,13.036,0,0,1,3.9,2.576c1.3,1.183,3.264,2.9,4.368,3.814s2.3,1.942,2.665,2.284c1.665,1.579,12.113,10.159,13.617,11.182a34.215,34.215,0,0,0,3.947,2.2c8.631,4.02,14.705,4.058,23.449.146.685-.307,2.318-.969,3.628-1.471l2.383-.911,1.412.872a25.181,25.181,0,0,1,6.178,6.444c2.272,3.335,3.114,3.769,7.3,3.761,3.819-.008,5.077-.473,10.357-3.848.972-.621,3.745-2.345,6.16-3.83,8.528-5.243,19.679-12.783,26.705-18.057,3.054-2.292,6.032-4.484,6.616-4.871,1.173-.776,4.991-4.111,9.357-8.172l2.842-2.643,2.565.222c1.41.121,5.062.422,8.116.67s8.008.812,11.009,1.254,6.672.922,8.157,1.066,4.169.529,5.965.856a71.871,71.871,0,0,0,10.7.594h7.432l1.558-1.572a48.325,48.325,0,0,0,3.419-4.051c1.024-1.363,2.613-3.443,3.531-4.623s1.95-2.529,2.293-3c1.05-1.435,5.01-6.508,8.732-11.184,5.011-6.3,5.808-7.57,5.808-9.3,0-1.885-.494-2.274-3.546-2.79-2.8-.473-4.978-.871-11.826-2.16-2.628-.494-6.086-1.064-7.685-1.267a23.636,23.636,0,0,1-3.947-.779,41.547,41.547,0,0,0-5.454-1.024c-2.429-.338-5.507-.9-6.839-1.244a19.656,19.656,0,0,0-3.408-.631,58.675,58.675,0,0,1-5.832-1.006c-6.9-1.43-8.827-1.806-14.046-2.742-5.674-1.017-8.526-2.235-11.1-4.738a8.827,8.827,0,0,1-3.2-7.392,37.69,37.69,0,0,0-.42-4.894c-.214-1.257-.748-6.813-1.186-12.347s-.985-11.423-1.215-13.086-.534-4.188-.673-5.611c-.3-3.081-2.558-8.331-4.1-9.544-2.132-1.677-1.89-2.536,1.73-6.167,5.247-5.263,25.056-24.449,26.8-25.953,2.146-1.855,3.669-4.892,3.247-6.476-.352-1.321-2.336-2.651-5.455-3.654-1.028-.331-3.13-1.085-4.671-1.676-9.756-3.742-13.656-5.215-15.476-5.847-.914-.317-2.41-.858-3.324-1.2a8.757,8.757,0,0,0-6.842.164,48.194,48.194,0,0,0-7.283,5.571,13.833,13.833,0,0,1-5.03,3.533c-3.314.915-6.345-2.221-8.789-9.1-2.414-6.792-2.757-11.223-3.417-44.229l-.43-21.59-1.043-1.575c-1.592-2.405-4.126-4.059-6.22-4.059-1.441,0-2.071.284-3.573,1.612-2.555,2.257-3.926,5.249-4.595,10.02-.711,5.08-.736,26.208-.041,36.349.282,4.113.721,10.469.976,14.125.529,7.588,1.02,9.51,3.59,14.062,3.587,6.353,4.117,7.066,10.246,13.794.844.926,8.015,10.056,9.609,12.231.976,1.333,2.518,3.377,6.433,8.527.8,1.052,1.876,2.508,2.391,3.236,1.968,2.781,3.065,4.307,4.686,6.516,5.529,7.534,6.027,9.072,6.39,19.732.148,4.341.445,9.389.661,11.217,1.229,10.437,1.732,16.553,1.493,18.147a5.746,5.746,0,0,1-4.291,4.747c-1.791.336-11.783-.481-16.314-1.334-1.714-.323-4.7-.694-6.647-.825s-4.932-.494-6.646-.81-5.359-.781-8.1-1.032-6.48-.721-8.308-1.043c-5.335-.938-11.68-1.509-13.381-1.2a25.708,25.708,0,0,0-8.765,4.218c-2.87,2.331-3.882,4.307-4.307,8.4-.2,1.951-.563,5.323-.8,7.493s-.534,6.013-.659,8.537c-.214,4.325-.167,4.71.823,6.647,2.094,4.1,5.357,6.16,11.243,7.107a33.886,33.886,0,0,1,4.079.81c.182.113,2.5.568,5.141,1.013,5.3.893,6.418,1.312,6.418,2.408,0,.426-3.106,3.554-7.373,7.428-4.056,3.681-8.436,7.69-9.734,8.908-9.661,9.07-12.208,11.253-14.465,12.4a46.229,46.229,0,0,1-10.177,2.948,13.889,13.889,0,0,1-12.068-4.047c-1.677-1.619-6.453-6.931-8.17-9.087-.182-.228-2.059-2.574-4.171-5.212-6.459-8.066-5.921-6.811-5.313-12.408.287-2.647.676-8.364.864-12.705.909-21,1.271-27.56,1.647-29.881.879-5.416.35-7.342-1.637-5.951-.464.325-3.51,3.084-6.769,6.13-7.589,7.094-10.266,9.548-14.046,12.877-1.686,1.485-4.115,3.635-5.4,4.777-7.386,6.578-9.208,8.156-12.031,10.413-6.025,4.816-9.358,7.188-10.5,7.469-2.8.69-5.021-1.709-5.029-5.419,0-2.143.2-2.707,2.256-6.231.666-1.142,1.594-2.824,2.064-3.738s1.313-2.41,1.872-3.324,1.4-2.41,1.87-3.324,1.309-2.41,1.865-3.324c1.116-1.834,2.61-4.514,3.938-7.062.477-.914,1.324-2.41,1.882-3.324s1.4-2.41,1.872-3.324,1.393-2.6,2.046-3.738,1.58-2.825,2.062-3.739,1.527-2.869,2.323-4.347c1.58-2.932,1.718-3.642.918-4.736-.494-.675-.643-.64-2.181.485a28.511,28.511,0,0,0-6.854,7.592c-.854,1.683-6.355,10.081-10.689,16.324-1.516,2.184-4.039,5.832-6.332,9.154-3.219,4.663-8.263,9.074-10.163,8.886-1.75-.173-2.287-1.513-2.291-5.731,0-3.627,1.021-12.606,1.531-13.431a28.566,28.566,0,0,0,1.012-4c.992-4.844,2.553-10.744,4.768-18,1.066-3.5,1.267-6.075.53-6.812s-2.723.175-3.187,1.464c-.685,1.9-2.109,6.858-2.409,8.383a16.192,16.192,0,0,1-.823,2.7,30.973,30.973,0,0,0-1.142,3.741c-.334,1.371-1.106,4.175-1.715,6.231s-1.36,4.673-1.668,5.815-.848,2.919-1.2,3.947-1.154,3.552-1.78,5.608c-1.508,4.951-3.086,7.422-5.479,8.581l-1.868.9-1.8-.953a17.95,17.95,0,0,1-3.736-3.029l-1.94-2.073.268-9.4a100.265,100.265,0,0,1,.719-11.063c.247-.914.627-2.6.845-3.739,1.234-6.447,2.577-13.088,2.941-14.54.229-.914.726-2.987,1.1-4.605a15.482,15.482,0,0,1,4.5-7.887c.877-.93,2.336-2.519,3.242-3.531,2.4-2.684,10.412-11.416,13.084-14.261,3.161-3.366,3.918-4.194,7.494-8.183,1.714-1.912,5.724-6.284,8.913-9.715s6.46-6.972,7.27-7.868,2.781-3.039,4.38-4.763,4.03-4.351,5.4-5.839c4.835-5.248,7.488-8.079,8.41-8.973,2.065-2,2.619-4.259,2.875-11.715a225.522,225.522,0,0,0-1.3-28.562c-.335-2.742-.792-6.48-1.015-8.308-.789-6.436-2.159-14.56-2.754-16.32a11.661,11.661,0,0,1-.607-2.7c-.008-1.677-1.9-5.051-3.533-6.3-1.36-1.038-1.974-1.217-4.265-1.243-.318,0-.6-.006-.849,0Zm111.3,216.409,3.2.069a47.077,47.077,0,0,1,6.733.766c1.942.384,5.306.949,7.477,1.255a109.223,109.223,0,0,1,12.59,2.488.736.736,0,0,1,.519.909,3.5,3.5,0,0,0-.231.964c0,.308-4.385,3.913-18.171,14.945-3.417,2.735-4.606,2.707-5.317-.125a5.283,5.283,0,0,0-1.753-2.272c-2.158-1.646-5.631-1.742-11.524-.319-2.513.607-5.5,1.454-6.647,1.882a47.109,47.109,0,0,1-6.819,2.077c-.238,0-.741-.473-1.12-1.051-.674-1.028-.65-1.094,1.122-3.195,2.43-2.882,6.345-6.552,12.425-11.647,1.942-1.627,4.428-3.809,5.523-4.852Zm-8.717,24.78c2.97-.069,5.06.492,6.715,1.751,2.771,2.108,2.468,4.23-.945,6.587-.57.393-1.972,1.372-3.114,2.174a11.064,11.064,0,0,1-2.5,1.467,4.162,4.162,0,0,0-1.452.726h0a30.416,30.416,0,0,1-3.365,1.828c-1.97.932-2.494,1.031-3.316.621a4.273,4.273,0,0,1-2.031-3.793,24.321,24.321,0,0,0-.632-3.869,11.161,11.161,0,0,1-.375-3.587c.382-1.522,3.735-3.094,7.739-3.629a30.179,30.179,0,0,1,3.282-.276Z" transform="translate(-30.004 -57.303)" fill="#fff"/>
      <path id="path923" d="M347.468,101.484c-.7.659-1.75,1.644-3.16,3-1.065,1.021-2.558,2.467-3.864,3.727v72.06c2.394.434,4.685.88,7.025,1.35ZM30.775,191.927V436.833H37.8V194.524a.186.186,0,0,1-.031-.008c-.479-.113-.294.2-2.054-.7,1.321.679-.116.022-.442-.036h0a9.244,9.244,0,0,1-4.5-1.85Zm361.579,29.388c-.637.826-1.539,1.984-1.754,2.278h0c-.493.674-1.461,1.93-2.4,3.137h0c-.728.937-1.909,2.488-2.871,3.759V436.833h7.025ZM184.5,245.075c-.387.163-2.172.354-2.448.537a21.461,21.461,0,0,0-2.608,2.111l4.464,364.355h7.025l-4.464-365.426c-.173-.156-.379-.334-.54-.481a12.6,12.6,0,0,0-1.379-1.071c-.02-.011-.03-.013-.05-.025Zm87.138,26.775a31.626,31.626,0,0,1-5.955,3.178c-.355.132-.712.243-1.07.345V522.848h7.025ZM108.323,289.04V522.848h7.025V290.472c-1.06-.184-2.129-.383-3.2-.6h0c-1.4-.288-2.7-.573-3.824-.829Z" transform="translate(-30.775 -5.436)" fill="#fff"/>
    </g>
  </g>
</svg>
