<svg xmlns="http://www.w3.org/2000/svg" width="26.384" height="20" viewBox="0 0 26.384 20">
  <path id="path2-2" d="M147.2-531.083a21.762,21.762,0,0,0-5.453-1.68,13.866,13.866,0,0,0-.693,1.413,20.843,20.843,0,0,0-6.041,0c-.187-.44-.467-1-.693-1.413a21.454,21.454,0,0,0-5.455,1.68,21.961,21.961,0,0,0-3.92,14.973,22.225,22.225,0,0,0,6.681,3.347,16.255,16.255,0,0,0,1.427-2.307,13.989,13.989,0,0,1-2.253-1.08c.187-.133.373-.28.547-.427a15.692,15.692,0,0,0,13.348,0c.187.147.36.293.547.427a13.989,13.989,0,0,1-2.253,1.08,16.262,16.262,0,0,0,1.427,2.307,22.1,22.1,0,0,0,6.681-3.347A21.823,21.823,0,0,0,147.2-531.083Zm-13.548,11.947a2.523,2.523,0,0,1-2.373-2.64,2.505,2.505,0,0,1,2.373-2.64,2.5,2.5,0,0,1,2.373,2.64A2.514,2.514,0,0,1,133.654-519.136Zm8.761,0a2.524,2.524,0,0,1-2.375-2.64,2.507,2.507,0,0,1,2.375-2.64,2.5,2.5,0,0,1,2.373,2.64A2.505,2.505,0,0,1,142.416-519.136Z" transform="translate(-124.834 532.763)" fill="#fff"/>
</svg>
