<svg id="Logo_1_" xmlns="http://www.w3.org/2000/svg" width="24.613" height="20" viewBox="0 0 24.613 20">
  <path id="white_background" d="M23.094,6.476c.015.217.015.434.015.653A14.271,14.271,0,0,1,8.741,21.5v0A14.3,14.3,0,0,1,1,19.23a10.272,10.272,0,0,0,1.2.073,10.14,10.14,0,0,0,6.272-2.166A5.056,5.056,0,0,1,3.756,13.63a5.033,5.033,0,0,0,2.28-.087,5.05,5.05,0,0,1-4.051-4.95V8.529a5.018,5.018,0,0,0,2.292.632A5.056,5.056,0,0,1,2.714,2.419,14.332,14.332,0,0,0,13.121,7.694a5.055,5.055,0,0,1,8.605-4.606,10.133,10.133,0,0,0,3.207-1.226,5.069,5.069,0,0,1-2.22,2.793,10.043,10.043,0,0,0,2.9-.795A10.259,10.259,0,0,1,23.094,6.476Z" transform="translate(-1 -1.497)" fill="#fff"/>
</svg>
