# MagicaVoxel @ Ephtracy

# group
o 

# material
mtllib boxeaar.mtl
usemtl palette

# normals
vn -1 0 0
vn 1 0 0
vn 0 0 1
vn 0 0 -1
vn 0 -1 0
vn 0 1 0

# texcoords
vt 0.158203 0.5
vt 0.162109 0.5
vt 0.978516 0.5
vt 0.982422 0.5
vt 0.986328 0.5
vt 0.990234 0.5
vt 0.994141 0.5

# verts
v 0 3.5 -0.5
v 0 3.5 -0.7
v 0 3.6 -0.5
v 0 3.6 -0.7
v 0 3.7 -0.5
v 0 3.7 -0.7
v 0 3.8 -0.5
v 0 3.8 -0.7
v 0 5.5 -0.5
v 0 5.5 -0.7
v 0 5.6 -0.5
v 0 5.6 -0.7
v 0 5.9 -0.5
v 0 5.9 -0.7
v 0 6 -0.5
v 0 6 -0.7
v 0.2 3.5 -0.3
v 0.2 3.5 -0.5
v 0.2 3.5 -0.7
v 0.2 3.5 -0.9
v 0.2 3.6 -0.3
v 0.2 3.6 -0.5
v 0.2 3.6 -0.7
v 0.2 3.6 -0.9
v 0.2 3.7 -0.3
v 0.2 3.7 -0.5
v 0.2 3.7 -0.7
v 0.2 3.7 -0.9
v 0.2 3.8 -0.3
v 0.2 3.8 -0.5
v 0.2 3.8 -0.7
v 0.2 3.8 -0.9
v 0.2 5.5 -0.3
v 0.2 5.5 -0.5
v 0.2 5.5 -0.7
v 0.2 5.5 -0.9
v 0.2 5.6 -0.3
v 0.2 5.6 -0.5
v 0.2 5.6 -0.7
v 0.2 5.6 -0.9
v 0.2 5.9 -0.3
v 0.2 5.9 -0.5
v 0.2 5.9 -0.7
v 0.2 5.9 -0.9
v 0.2 6 -0.3
v 0.2 6 -0.5
v 0.2 6 -0.7
v 0.2 6 -0.9
v 1.8 4 -0.3
v 1.8 4 -0.9
v 1.8 4.1 -0.3
v 1.8 4.1 -0.9
v 1.9 3.5 -0.3
v 1.9 3.5 -0.9
v 1.9 3.6 -0.3
v 1.9 3.6 -0.9
v 1.9 3.7 -0.3
v 1.9 3.7 -0.9
v 1.9 3.8 -0.4
v 1.9 3.8 -0.8
v 1.9 4 -0.3
v 1.9 4 -0.4
v 1.9 4 -0.8
v 1.9 4 -0.9
v 1.6 3.5 -0.3
v 1.6 3.5 -0.9
v 1.6 3.6 -0.3
v 1.6 3.6 -0.9
v 1.6 3.7 -0.3
v 1.6 3.7 -0.9
v 1.6 3.8 -0.4
v 1.6 3.8 -0.8
v 1.6 4 -0.3
v 1.6 4 -0.4
v 1.6 4 -0.8
v 1.6 4 -0.9
v 1.7 4 -0.3
v 1.7 4 -0.9
v 1.7 4.1 -0.3
v 1.7 4.1 -0.9
v 3.2 3.5 -0.3
v 3.2 3.5 -0.5
v 3.2 3.5 -0.7
v 3.2 3.5 -0.9
v 3.2 3.6 -0.3
v 3.2 3.6 -0.5
v 3.2 3.6 -0.7
v 3.2 3.6 -0.9
v 3.2 3.7 -0.3
v 3.2 3.7 -0.5
v 3.2 3.7 -0.7
v 3.2 3.7 -0.9
v 3.2 3.8 -0.3
v 3.2 3.8 -0.5
v 3.2 3.8 -0.7
v 3.2 3.8 -0.9
v 3.2 5.5 -0.3
v 3.2 5.5 -0.5
v 3.2 5.5 -0.7
v 3.2 5.5 -0.9
v 3.2 5.6 -0.3
v 3.2 5.6 -0.5
v 3.2 5.6 -0.7
v 3.2 5.6 -0.9
v 3.2 5.9 -0.3
v 3.2 5.9 -0.5
v 3.2 5.9 -0.7
v 3.2 5.9 -0.9
v 3.2 6 -0.3
v 3.2 6 -0.5
v 3.2 6 -0.7
v 3.2 6 -0.9
v 3.4 3.5 -0.5
v 3.4 3.5 -0.7
v 3.4 3.6 -0.5
v 3.4 3.6 -0.7
v 3.4 3.7 -0.5
v 3.4 3.7 -0.7
v 3.4 3.8 -0.5
v 3.4 3.8 -0.7
v 3.4 5.5 -0.5
v 3.4 5.5 -0.7
v 3.4 5.6 -0.5
v 3.4 5.6 -0.7
v 3.4 5.9 -0.5
v 3.4 5.9 -0.7
v 3.4 6 -0.5
v 3.4 6 -0.7
v 0.2 3.5 -0.3
v 0.2 3.6 -0.3
v 0.2 3.7 -0.3
v 0.2 3.8 -0.3
v 0.2 5.5 -0.3
v 0.2 5.6 -0.3
v 0.2 5.9 -0.3
v 0.2 6 -0.3
v 1.5 3.8 -0.3
v 1.5 4 -0.3
v 1.6 3.5 -0.3
v 1.6 3.6 -0.3
v 1.6 3.7 -0.3
v 1.6 4 -0.3
v 1.6 4.1 -0.3
v 1.7 4 -0.3
v 1.7 4.1 -0.3
v 1.7 5.5 -0.3
v 1.8 4 -0.3
v 1.8 4.1 -0.3
v 1.8 4.4 -0.3
v 1.8 4.5 -0.3
v 1.8 5.5 -0.3
v 1.9 3.5 -0.3
v 1.9 3.6 -0.3
v 1.9 3.7 -0.3
v 1.9 4 -0.3
v 1.9 4.1 -0.3
v 1.9 4.4 -0.3
v 1.9 4.5 -0.3
v 1.9 4.6 -0.3
v 2 3.8 -0.3
v 2 4 -0.3
v 2 4.5 -0.3
v 2 4.6 -0.3
v 2 5.5 -0.3
v 2.1 4.6 -0.3
v 2.1 5.5 -0.3
v 3.2 3.5 -0.3
v 3.2 3.6 -0.3
v 3.2 3.7 -0.3
v 3.2 3.8 -0.3
v 3.2 5.5 -0.3
v 3.2 5.6 -0.3
v 3.2 5.9 -0.3
v 3.2 6 -0.3
v 0 3.5 -0.5
v 0 3.6 -0.5
v 0 3.7 -0.5
v 0 3.8 -0.5
v 0 5.5 -0.5
v 0 5.6 -0.5
v 0 5.9 -0.5
v 0 6 -0.5
v 0.2 3.5 -0.5
v 0.2 3.6 -0.5
v 0.2 3.7 -0.5
v 0.2 3.8 -0.5
v 0.2 5.5 -0.5
v 0.2 5.6 -0.5
v 0.2 5.9 -0.5
v 0.2 6 -0.5
v 3.2 3.5 -0.5
v 3.2 3.6 -0.5
v 3.2 3.7 -0.5
v 3.2 3.8 -0.5
v 3.2 5.5 -0.5
v 3.2 5.6 -0.5
v 3.2 5.9 -0.5
v 3.2 6 -0.5
v 3.3 3.7 -0.5
v 3.3 3.8 -0.5
v 3.4 3.5 -0.5
v 3.4 3.6 -0.5
v 3.4 3.7 -0.5
v 3.4 3.8 -0.5
v 3.4 5.5 -0.5
v 3.4 5.6 -0.5
v 3.4 5.9 -0.5
v 3.4 6 -0.5
v 0 3.5 -0.7
v 0 3.6 -0.7
v 0 3.7 -0.7
v 0 3.8 -0.7
v 0 5.5 -0.7
v 0 5.6 -0.7
v 0 5.9 -0.7
v 0 6 -0.7
v 0.2 3.5 -0.7
v 0.2 3.6 -0.7
v 0.2 3.7 -0.7
v 0.2 3.8 -0.7
v 0.2 5.5 -0.7
v 0.2 5.6 -0.7
v 0.2 5.9 -0.7
v 0.2 6 -0.7
v 3.2 3.5 -0.7
v 3.2 3.6 -0.7
v 3.2 3.7 -0.7
v 3.2 3.8 -0.7
v 3.2 5.5 -0.7
v 3.2 5.6 -0.7
v 3.2 5.9 -0.7
v 3.2 6 -0.7
v 3.3 3.7 -0.7
v 3.3 3.8 -0.7
v 3.4 3.5 -0.7
v 3.4 3.6 -0.7
v 3.4 3.7 -0.7
v 3.4 3.8 -0.7
v 3.4 5.5 -0.7
v 3.4 5.6 -0.7
v 3.4 5.9 -0.7
v 3.4 6 -0.7
v 0.2 3.5 -0.9
v 0.2 3.6 -0.9
v 0.2 3.7 -0.9
v 0.2 3.8 -0.9
v 0.2 5.5 -0.9
v 0.2 5.6 -0.9
v 0.2 5.9 -0.9
v 0.2 6 -0.9
v 1.5 3.8 -0.9
v 1.5 4 -0.9
v 1.5 4.6 -0.9
v 1.5 5.5 -0.9
v 1.6 3.5 -0.9
v 1.6 3.6 -0.9
v 1.6 3.7 -0.9
v 1.6 4 -0.9
v 1.6 4.1 -0.9
v 1.6 4.5 -0.9
v 1.6 4.6 -0.9
v 1.6 5.5 -0.9
v 1.7 4 -0.9
v 1.7 4.1 -0.9
v 1.7 4.5 -0.9
v 1.7 4.6 -0.9
v 1.7 5.5 -0.9
v 1.8 4 -0.9
v 1.8 4.1 -0.9
v 1.8 5.5 -0.9
v 1.9 3.5 -0.9
v 1.9 3.6 -0.9
v 1.9 3.7 -0.9
v 1.9 4 -0.9
v 1.9 4.1 -0.9
v 2 3.8 -0.9
v 2 4 -0.9
v 3.2 3.5 -0.9
v 3.2 3.6 -0.9
v 3.2 3.7 -0.9
v 3.2 3.8 -0.9
v 3.2 5.5 -0.9
v 3.2 5.6 -0.9
v 3.2 5.9 -0.9
v 3.2 6 -0.9
v 0.2 3.5 -0.3
v 1.6 3.5 -0.3
v 1.9 3.5 -0.3
v 3.2 3.5 -0.3
v 0 3.5 -0.5
v 0.2 3.5 -0.5
v 1.5 3.5 -0.5
v 2 3.5 -0.5
v 3.2 3.5 -0.5
v 3.4 3.5 -0.5
v 0 3.5 -0.7
v 0.2 3.5 -0.7
v 1.5 3.5 -0.7
v 2 3.5 -0.7
v 3.2 3.5 -0.7
v 3.4 3.5 -0.7
v 0.2 3.5 -0.9
v 1.6 3.5 -0.9
v 1.9 3.5 -0.9
v 3.2 3.5 -0.9
v 1.6 4 -0.3
v 1.7 4 -0.3
v 1.8 4 -0.3
v 1.9 4 -0.3
v 1.6 4 -0.4
v 1.9 4 -0.4
v 1.6 4 -0.8
v 1.9 4 -0.8
v 1.6 4 -0.9
v 1.7 4 -0.9
v 1.8 4 -0.9
v 1.9 4 -0.9
v 1.7 4.1 -0.3
v 1.8 4.1 -0.3
v 1.7 4.1 -0.9
v 1.8 4.1 -0.9
v 0.2 6 -0.3
v 3.2 6 -0.3
v 0 6 -0.5
v 0.2 6 -0.5
v 3.2 6 -0.5
v 3.4 6 -0.5
v 0 6 -0.7
v 0.2 6 -0.7
v 3.2 6 -0.7
v 3.4 6 -0.7
v 0.2 6 -0.9
v 3.2 6 -0.9

# faces
f 3/5/1 2/5/1 1/5/1
f 4/5/1 2/5/1 3/5/1
f 5/2/1 4/2/1 3/2/1
f 6/2/1 4/2/1 5/2/1
f 7/5/1 6/5/1 5/5/1
f 8/5/1 6/5/1 7/5/1
f 9/2/1 8/2/1 7/2/1
f 10/2/1 8/2/1 9/2/1
f 11/5/1 10/5/1 9/5/1
f 12/5/1 10/5/1 11/5/1
f 13/6/1 12/6/1 11/6/1
f 14/6/1 12/6/1 13/6/1
f 15/5/1 14/5/1 13/5/1
f 16/5/1 14/5/1 15/5/1
f 21/5/1 18/5/1 17/5/1
f 22/5/1 18/5/1 21/5/1
f 23/5/1 20/5/1 19/5/1
f 24/5/1 20/5/1 23/5/1
f 25/2/1 22/2/1 21/2/1
f 26/2/1 22/2/1 25/2/1
f 27/2/1 24/2/1 23/2/1
f 28/2/1 24/2/1 27/2/1
f 29/5/1 26/5/1 25/5/1
f 30/5/1 26/5/1 29/5/1
f 31/5/1 28/5/1 27/5/1
f 32/5/1 28/5/1 31/5/1
f 33/2/1 30/2/1 29/2/1
f 34/2/1 30/2/1 33/2/1
f 35/2/1 32/2/1 31/2/1
f 36/2/1 32/2/1 35/2/1
f 37/5/1 34/5/1 33/5/1
f 38/5/1 34/5/1 37/5/1
f 39/5/1 36/5/1 35/5/1
f 40/5/1 36/5/1 39/5/1
f 41/6/1 38/6/1 37/6/1
f 42/6/1 38/6/1 41/6/1
f 43/6/1 40/6/1 39/6/1
f 44/6/1 40/6/1 43/6/1
f 45/5/1 42/5/1 41/5/1
f 46/5/1 42/5/1 45/5/1
f 47/5/1 44/5/1 43/5/1
f 48/5/1 44/5/1 47/5/1
f 51/5/1 50/5/1 49/5/1
f 52/5/1 50/5/1 51/5/1
f 55/5/1 54/5/1 53/5/1
f 56/5/1 54/5/1 55/5/1
f 57/2/1 56/2/1 55/2/1
f 58/2/1 56/2/1 57/2/1
f 59/5/1 58/5/1 57/5/1
f 60/5/1 58/5/1 59/5/1
f 61/5/1 59/5/1 57/5/1
f 62/2/1 60/2/1 59/2/1
f 62/5/1 59/5/1 61/5/1
f 63/5/1 58/5/1 60/5/1
f 63/2/1 60/2/1 62/2/1
f 64/5/1 58/5/1 63/5/1
f 65/5/2 66/5/2 67/5/2
f 67/5/2 66/5/2 68/5/2
f 67/2/2 68/2/2 69/2/2
f 69/2/2 68/2/2 70/2/2
f 69/5/2 70/5/2 71/5/2
f 71/5/2 70/5/2 72/5/2
f 69/5/2 71/5/2 73/5/2
f 71/2/2 72/2/2 74/2/2
f 73/5/2 71/5/2 74/5/2
f 72/5/2 70/5/2 75/5/2
f 74/2/2 72/2/2 75/2/2
f 75/5/2 70/5/2 76/5/2
f 77/5/2 78/5/2 79/5/2
f 79/5/2 78/5/2 80/5/2
f 81/5/2 82/5/2 85/5/2
f 85/5/2 82/5/2 86/5/2
f 83/5/2 84/5/2 87/5/2
f 87/5/2 84/5/2 88/5/2
f 85/2/2 86/2/2 89/2/2
f 89/2/2 86/2/2 90/2/2
f 87/2/2 88/2/2 91/2/2
f 91/2/2 88/2/2 92/2/2
f 89/5/2 90/5/2 93/5/2
f 93/5/2 90/5/2 94/5/2
f 91/5/2 92/5/2 95/5/2
f 95/5/2 92/5/2 96/5/2
f 93/2/2 94/2/2 97/2/2
f 97/2/2 94/2/2 98/2/2
f 95/2/2 96/2/2 99/2/2
f 99/2/2 96/2/2 100/2/2
f 97/5/2 98/5/2 101/5/2
f 101/5/2 98/5/2 102/5/2
f 99/5/2 100/5/2 103/5/2
f 103/5/2 100/5/2 104/5/2
f 101/6/2 102/6/2 105/6/2
f 105/6/2 102/6/2 106/6/2
f 103/6/2 104/6/2 107/6/2
f 107/6/2 104/6/2 108/6/2
f 105/5/2 106/5/2 109/5/2
f 109/5/2 106/5/2 110/5/2
f 107/5/2 108/5/2 111/5/2
f 111/5/2 108/5/2 112/5/2
f 113/5/2 114/5/2 115/5/2
f 115/5/2 114/5/2 116/5/2
f 115/2/2 116/2/2 117/2/2
f 117/2/2 116/2/2 118/2/2
f 117/5/2 118/5/2 119/5/2
f 119/5/2 118/5/2 120/5/2
f 119/2/2 120/2/2 121/2/2
f 121/2/2 120/2/2 122/2/2
f 121/5/2 122/5/2 123/5/2
f 123/5/2 122/5/2 124/5/2
f 123/6/2 124/6/2 125/6/2
f 125/6/2 124/6/2 126/6/2
f 125/5/2 126/5/2 127/5/2
f 127/5/2 126/5/2 128/5/2
f 137/5/3 132/5/3 131/5/3
f 137/2/3 133/2/3 132/2/3
f 138/2/3 133/2/3 137/2/3
f 139/5/3 130/5/3 129/5/3
f 140/2/3 131/2/3 130/2/3
f 140/5/3 130/5/3 139/5/3
f 141/5/3 137/5/3 131/5/3
f 141/2/3 131/2/3 140/2/3
f 141/5/3 138/5/3 137/5/3
f 142/2/3 133/2/3 138/2/3
f 142/5/3 138/5/3 141/5/3
f 143/2/3 133/2/3 142/2/3
f 144/5/3 143/5/3 142/5/3
f 145/2/3 133/2/3 143/2/3
f 145/5/3 143/5/3 144/5/3
f 146/5/3 134/5/3 133/5/3
f 146/2/3 133/2/3 145/2/3
f 148/5/3 146/5/3 145/5/3
f 149/5/3 146/5/3 148/5/3
f 150/5/3 146/5/3 149/5/3
f 151/5/3 134/5/3 146/5/3
f 151/5/3 146/5/3 150/5/3
f 155/5/3 148/5/3 147/5/3
f 156/2/3 149/2/3 148/2/3
f 156/5/3 148/5/3 155/5/3
f 157/5/3 150/5/3 149/5/3
f 157/2/3 149/2/3 156/2/3
f 158/2/3 151/2/3 150/2/3
f 158/5/3 150/5/3 157/5/3
f 159/2/3 151/2/3 158/2/3
f 160/5/3 155/5/3 154/5/3
f 161/2/3 156/2/3 155/2/3
f 161/5/3 155/5/3 160/5/3
f 161/2/3 157/2/3 156/2/3
f 161/2/3 158/2/3 157/2/3
f 162/5/3 159/5/3 158/5/3
f 162/2/3 158/2/3 161/2/3
f 163/2/3 151/2/3 159/2/3
f 163/5/3 159/5/3 162/5/3
f 164/5/3 134/5/3 151/5/3
f 164/2/3 151/2/3 163/2/3
f 165/2/3 162/2/3 161/2/3
f 165/2/3 161/2/3 160/2/3
f 165/5/3 164/5/3 163/5/3
f 165/2/3 163/2/3 162/2/3
f 166/5/3 134/5/3 164/5/3
f 166/5/3 164/5/3 165/5/3
f 167/5/3 153/5/3 152/5/3
f 168/2/3 154/2/3 153/2/3
f 168/5/3 153/5/3 167/5/3
f 169/5/3 160/5/3 154/5/3
f 169/2/3 154/2/3 168/2/3
f 170/2/3 165/2/3 160/2/3
f 170/5/3 160/5/3 169/5/3
f 170/2/3 166/2/3 165/2/3
f 171/5/3 134/5/3 166/5/3
f 171/2/3 166/2/3 170/2/3
f 172/6/3 135/6/3 134/6/3
f 172/5/3 134/5/3 171/5/3
f 173/5/3 136/5/3 135/5/3
f 173/6/3 135/6/3 172/6/3
f 174/5/3 136/5/3 173/5/3
f 183/5/3 176/5/3 175/5/3
f 184/2/3 177/2/3 176/2/3
f 184/5/3 176/5/3 183/5/3
f 185/5/3 178/5/3 177/5/3
f 185/2/3 177/2/3 184/2/3
f 186/2/3 179/2/3 178/2/3
f 186/5/3 178/5/3 185/5/3
f 187/5/3 180/5/3 179/5/3
f 187/2/3 179/2/3 186/2/3
f 188/6/3 181/6/3 180/6/3
f 188/5/3 180/5/3 187/5/3
f 189/5/3 182/5/3 181/5/3
f 189/6/3 181/6/3 188/6/3
f 190/5/3 182/5/3 189/5/3
f 199/2/3 193/2/3 192/2/3
f 199/3/3 194/3/3 193/3/3
f 200/2/3 195/2/3 194/2/3
f 200/3/3 194/3/3 199/3/3
f 201/5/3 192/5/3 191/5/3
f 202/2/3 199/2/3 192/2/3
f 202/5/3 192/5/3 201/5/3
f 203/5/3 200/5/3 199/5/3
f 203/2/3 199/2/3 202/2/3
f 204/2/3 195/2/3 200/2/3
f 204/5/3 200/5/3 203/5/3
f 205/5/3 196/5/3 195/5/3
f 205/2/3 195/2/3 204/2/3
f 206/6/3 197/6/3 196/6/3
f 206/5/3 196/5/3 205/5/3
f 207/5/3 198/5/3 197/5/3
f 207/6/3 197/6/3 206/6/3
f 208/5/3 198/5/3 207/5/3
f 209/5/4 210/5/4 217/5/4
f 210/2/4 211/2/4 218/2/4
f 217/5/4 210/5/4 218/5/4
f 211/5/4 212/5/4 219/5/4
f 218/2/4 211/2/4 219/2/4
f 212/2/4 213/2/4 220/2/4
f 219/5/4 212/5/4 220/5/4
f 213/5/4 214/5/4 221/5/4
f 220/2/4 213/2/4 221/2/4
f 214/6/4 215/6/4 222/6/4
f 221/5/4 214/5/4 222/5/4
f 215/5/4 216/5/4 223/5/4
f 222/6/4 215/6/4 223/6/4
f 223/5/4 216/5/4 224/5/4
f 226/2/4 227/2/4 233/2/4
f 227/3/4 228/3/4 233/3/4
f 228/2/4 229/2/4 234/2/4
f 233/3/4 228/3/4 234/3/4
f 225/5/4 226/5/4 235/5/4
f 226/2/4 233/2/4 236/2/4
f 235/5/4 226/5/4 236/5/4
f 233/5/4 234/5/4 237/5/4
f 236/2/4 233/2/4 237/2/4
f 234/2/4 229/2/4 238/2/4
f 237/5/4 234/5/4 238/5/4
f 229/5/4 230/5/4 239/5/4
f 238/2/4 229/2/4 239/2/4
f 230/6/4 231/6/4 240/6/4
f 239/5/4 230/5/4 240/5/4
f 231/5/4 232/5/4 241/5/4
f 240/6/4 231/6/4 241/6/4
f 241/5/4 232/5/4 242/5/4
f 245/5/4 246/5/4 251/5/4
f 246/2/4 247/2/4 251/2/4
f 251/2/4 247/2/4 252/2/4
f 252/2/4 247/2/4 253/2/4
f 247/5/4 248/5/4 254/5/4
f 253/2/4 247/2/4 254/2/4
f 243/5/4 244/5/4 255/5/4
f 244/2/4 245/2/4 256/2/4
f 255/5/4 244/5/4 256/5/4
f 245/5/4 251/5/4 257/5/4
f 256/2/4 245/2/4 257/2/4
f 251/5/4 252/5/4 257/5/4
f 252/2/4 253/2/4 258/2/4
f 257/5/4 252/5/4 258/5/4
f 258/2/4 253/2/4 259/2/4
f 259/2/4 253/2/4 260/2/4
f 253/5/4 254/5/4 261/5/4
f 260/2/4 253/2/4 261/2/4
f 254/5/4 248/5/4 262/5/4
f 261/5/4 254/5/4 262/5/4
f 258/5/4 259/5/4 263/5/4
f 259/2/4 260/2/4 264/2/4
f 263/5/4 259/5/4 264/5/4
f 260/5/4 261/5/4 265/5/4
f 264/2/4 260/2/4 265/2/4
f 261/2/4 262/2/4 266/2/4
f 265/5/4 261/5/4 266/5/4
f 262/5/4 248/5/4 267/5/4
f 266/2/4 262/2/4 267/2/4
f 265/5/4 266/5/4 269/5/4
f 266/5/4 267/5/4 269/5/4
f 264/5/4 265/5/4 269/5/4
f 267/5/4 248/5/4 270/5/4
f 269/5/4 267/5/4 270/5/4
f 268/5/4 269/5/4 274/5/4
f 269/2/4 270/2/4 275/2/4
f 274/5/4 269/5/4 275/5/4
f 273/5/4 274/5/4 276/5/4
f 274/2/4 275/2/4 277/2/4
f 276/5/4 274/5/4 277/5/4
f 271/5/4 272/5/4 278/5/4
f 272/2/4 273/2/4 279/2/4
f 278/5/4 272/5/4 279/5/4
f 273/5/4 276/5/4 280/5/4
f 279/2/4 273/2/4 280/2/4
f 276/2/4 277/2/4 281/2/4
f 280/5/4 276/5/4 281/5/4
f 275/2/4 270/2/4 282/2/4
f 281/2/4 277/2/4 282/2/4
f 270/5/4 248/5/4 282/5/4
f 277/2/4 275/2/4 282/2/4
f 248/6/4 249/6/4 283/6/4
f 282/5/4 248/5/4 283/5/4
f 249/5/4 250/5/4 284/5/4
f 283/6/4 249/6/4 284/6/4
f 284/5/4 250/5/4 285/5/4
f 291/5/5 287/5/5 286/5/5
f 292/5/5 287/5/5 291/5/5
f 293/5/5 289/5/5 288/5/5
f 294/5/5 289/5/5 293/5/5
f 296/5/5 291/5/5 290/5/5
f 297/4/5 292/4/5 291/4/5
f 297/5/5 291/5/5 296/5/5
f 298/5/5 287/5/5 292/5/5
f 298/4/5 292/4/5 297/4/5
f 299/5/5 293/5/5 288/5/5
f 299/4/5 294/4/5 293/4/5
f 300/5/5 295/5/5 294/5/5
f 300/4/5 294/4/5 299/4/5
f 301/5/5 295/5/5 300/5/5
f 302/5/5 298/5/5 297/5/5
f 303/5/5 287/5/5 298/5/5
f 303/5/5 298/5/5 302/5/5
f 304/5/5 299/5/5 288/5/5
f 304/5/5 300/5/5 299/5/5
f 305/5/5 300/5/5 304/5/5
f 310/5/5 307/5/5 306/5/5
f 311/5/5 309/5/5 308/5/5
f 312/5/5 307/5/5 310/5/5
f 313/5/5 311/5/5 308/5/5
f 314/5/5 307/5/5 312/5/5
f 315/5/5 307/5/5 314/5/5
f 316/5/5 313/5/5 308/5/5
f 317/5/5 313/5/5 316/5/5
f 320/5/5 319/5/5 318/5/5
f 321/5/5 319/5/5 320/5/5
f 322/5/6 323/5/6 325/5/6
f 325/5/6 323/5/6 326/5/6
f 324/5/6 325/5/6 328/5/6
f 325/4/6 326/4/6 329/4/6
f 328/5/6 325/5/6 329/5/6
f 326/5/6 327/5/6 330/5/6
f 329/4/6 326/4/6 330/4/6
f 330/5/6 327/5/6 331/5/6
f 329/5/6 330/5/6 332/5/6
f 332/5/6 330/5/6 333/5/6
