<svg width="420" height="250" xmlns="http://www.w3.org/2000/svg">

 <g>
  <title>Layer 1</title>
  <g stroke="null" transform="translate(-2 7) translate(-1 -8) translate(-1 1) translate(-150 -128) translate(17 10) translate(139 122) translate(15.834 13.123) scale(10.5157 9.32991) translate(-15.834 -13.123)" style="vector-effect: non-scaling-stroke;">
   <path style="vector-effect: non-scaling-stroke;" stroke="null" d="m15.83398,16.10352q0,-0.16407 0.15723,-0.2461t0.3418,-0.12304t0.33496,-0.04102l0.15039,0q0.47852,0 0.69043,0.21875t0.51269,0.56055q2.05079,2.96679 3.75977,6.10449t3.29492,6.35058q0.13672,-3.74609 0.28028,-7.54003t0.3623,-7.52637q0,-0.16406 0.15723,-0.27344t0.35547,-0.16406t0.40332,-0.06836t0.31445,-0.01367q0.16406,0 0.3623,0.01367t0.39649,0.08203t0.32812,0.16406t0.12989,0.25977q0.05468,0.58789 0.06152,1.18262t0.00684,1.18261q0,4.40235 -0.19141,8.62696t-0.19141,8.53125l0,0.98437q0,0.05469 -0.05468,0.16406q0.02734,0.10938 0.08203,0.23926t0.05468,0.18457q0,0.21875 -0.22558,0.32813t-0.49219,0.17089t-0.47168,0.06153t-0.15039,0q-0.69727,0 -1.17578,-0.38281t-0.47852,-0.91602q-1.01172,-2.26953 -2.0166,-4.50488t-2.09863,-4.4502q-0.69727,-1.39453 -1.40137,-2.7959t-1.51074,-2.71386q0.02734,0.02734 0.02734,0.08203q0.13672,1.36719 0.29395,2.72754t0.23926,2.72754q0.05468,1.17578 0.12304,2.3789t0.21875,2.37891q0,0.45117 -0.28027,0.57422t-0.64941,0.12304q-0.31446,0 -0.59473,-0.08203t-0.33496,-0.41015q0,-1.25782 -0.0957,-2.67286t-0.17774,-2.85058q-0.13672,-1.90039 -0.3623,-3.86231t-0.22559,-3.83496q0,-0.08203 0.01367,-0.1709t0.01367,-0.19824q-0.08203,-0.13672 -0.18457,-0.28711t-0.10254,-0.27343zm15.21229,15.59961q0.08203,-2.21485 0.14355,-4.53907t0.11622,-4.58691t0.08203,-4.39551t0.02734,-3.97851q0.02734,-0.36915 0.64258,-0.5879t1.46972,-0.32128t1.80469,-0.12989t1.68848,-0.02734q0.16406,0 0.68359,-0.01367l0.25977,0q0.39648,0 0.83398,0.02734q0.57422,0.04102 1.00489,0.17774t0.43066,0.39648q0,0.19141 -0.15039,0.30762t-0.34863,0.1709t-0.41016,0.06835t-0.29395,0.01368q-1.28515,0 -2.54296,-0.04102q-0.3418,-0.01367 -0.69727,-0.01367q-0.92969,0 -1.88672,0.08203q0.05469,0.16406 0.08887,0.99121t0.03418,1.86621t-0.01367,2.03028t0,1.52441l0,3.55469q0.42382,-0.02735 0.83398,-0.02735l0.82031,0l0.54688,-0.02734q0.27344,-0.01367 0.57422,-0.01367q0.31445,0 0.64258,0.01367q0.65625,0.02734 1.19628,0.15723t0.54004,0.458q0,0.2461 -0.20507,0.36231t-0.45801,0.1709t-0.47852,0.05468l-0.25293,0q-0.77929,0 -1.62012,-0.05468t-1.56542,-0.05469q-0.13672,0.05469 -0.29395,0.04102t-0.28027,-0.01368q0,2.05078 -0.04102,4.08106t-0.0957,4.04004q0,0.39648 -0.49903,0.51953t-0.95019,0.12305q-0.50586,0 -0.79981,-0.12305t-0.41699,-0.40332t-0.15039,-0.74512q-0.01367,-0.25976 -0.02734,-0.57422q0,-0.25976 0.01367,-0.56054zm10.31775,-17.15821q0,-0.1914 0.26661,-0.29394t0.34863,-0.10254l0.50586,-0.08203q0.50586,-0.08203 1.02539,-0.14356t1.01172,-0.11621q1.73632,-0.21875 3.47265,-0.43066t3.5,-0.21192q0.13672,0 0.37598,0.01367t0.47852,0.0752t0.41015,0.1709t0.1709,0.30078q0,0.13672 -0.12988,0.23926t-0.30762,0.15722t-0.3623,0.06836t-0.29395,0.01368l-0.23926,0t-0.23926,-0.05469q-0.72461,0 -1.42871,0.06836t-1.42871,0.12304q0.19141,0.21875 0.20508,0.61524t0.02734,0.68359q0,4.83985 0.06836,9.625t0.12305,9.66602l0,0.02734q-0.45117,0.39649 -0.77246,0.50586t-0.64941,0.10938q-0.31446,0 -0.63575,-0.11622t-0.77246,-0.49902l0,-0.02734l0.10938,-10.73242q0,-1.06641 -0.02735,-2.35157t-0.02734,-2.60449t0.04102,-2.5498t0.21875,-2.14649q-0.80665,0.08203 -1.70899,0.2461q-0.7793,0.13671 -1.49023,0.13671l-0.2461,0q-0.05468,0 -0.32129,0.01368t-0.54687,-0.01368t-0.50586,-0.10937t-0.22559,-0.27344z" fill="#1e80c7"/>
   <path style="vector-effect: non-scaling-stroke;" stroke="null" fill="#"/>
  </g>
 </g>
</svg>