<svg width="1440" height="499" viewBox="0 0 1440 499" fill="none" xmlns="http://www.w3.org/2000/svg">
<g filter="url(#filter0_d)">
<path d="M0 356.49L180.081 348.745C616.703 329.969 1045.25 224.685 1440.87 39.002V39.002" stroke="#ADF9FF" stroke-width="4"/>
</g>
<circle cx="1208" cy="137" r="8" fill="#ADF9FF"/>
<circle cx="904" cy="236" r="8" fill="#ADF9FF"/>
<circle cx="600" cy="304" r="8" fill="#ADF9FF"/>
<circle cx="296" cy="342" r="8" fill="#ADF9FF"/>
<path d="M208.956 223V210.04H220.926V212.848H211.782V215.116H219.144V217.924H211.782V220.192H220.926V223H208.956ZM222.737 223V212.704C222.737 211.972 222.995 211.348 223.511 210.832C224.039 210.304 224.669 210.04 225.401 210.04H233.015C233.747 210.04 234.377 210.304 234.905 210.832C235.433 211.348 235.697 211.972 235.697 212.704V223H232.871V218.824H225.527V223H222.737ZM225.527 216.016H232.871V213.442C232.871 213.046 232.871 212.848 232.871 212.848C232.871 212.848 232.673 212.848 232.277 212.848H226.121C225.725 212.848 225.527 212.848 225.527 212.848C225.527 212.848 225.527 213.046 225.527 213.442V216.016ZM237.73 223V210.058H248.008C248.74 210.058 249.37 210.322 249.898 210.85C250.426 211.378 250.69 212.002 250.69 212.722V216.07C250.69 216.79 250.426 217.414 249.898 217.942C249.37 218.47 248.74 218.734 248.008 218.734H247.882L250.69 222.046V223H247.81L244.228 218.734L240.52 218.752V223H237.73ZM241.114 215.926H247.27C247.666 215.926 247.864 215.926 247.864 215.926C247.864 215.926 247.864 215.728 247.864 215.332V213.442C247.864 213.046 247.864 212.848 247.864 212.848C247.864 212.848 247.666 212.848 247.27 212.848H241.114C240.718 212.848 240.52 212.848 240.52 212.848C240.52 212.848 240.52 213.046 240.52 213.442V215.332C240.52 215.728 240.52 215.926 240.52 215.926C240.52 215.926 240.718 215.926 241.114 215.926ZM252.602 223V210.04H255.482L262.736 218.68V210.04H265.562V223H262.682L255.392 214.324V223H252.602ZM273.307 223V210.04H276.061V223H273.307ZM277.229 223V210.04H280.109L287.363 218.68V210.04H290.189V223H287.309L280.019 214.324V223H277.229ZM292.241 223V210.04H302.519C303.251 210.04 303.881 210.304 304.409 210.832C304.937 211.348 305.201 211.972 305.201 212.704V220.336C305.201 221.068 304.937 221.698 304.409 222.226C303.881 222.742 303.251 223 302.519 223H292.241ZM295.625 220.192H301.781C302.177 220.192 302.375 220.192 302.375 220.192C302.375 220.192 302.375 219.994 302.375 219.598V213.442C302.375 213.046 302.375 212.848 302.375 212.848C302.375 212.848 302.177 212.848 301.781 212.848H295.625C295.229 212.848 295.031 212.848 295.031 212.848C295.031 212.848 295.031 213.046 295.031 213.442V219.598C295.031 219.994 295.031 220.192 295.031 220.192C295.031 220.192 295.229 220.192 295.625 220.192ZM307.145 223V210.04H309.899V223H307.145ZM311.049 223V210.058H321.327C322.059 210.058 322.689 210.322 323.217 210.85C323.745 211.378 324.009 212.002 324.009 212.722V216.07C324.009 216.79 323.745 217.414 323.217 217.942C322.689 218.47 322.059 218.734 321.327 218.734H321.201L324.009 222.046V223H321.129L317.547 218.734L313.839 218.752V223H311.049ZM314.433 215.926H320.589C320.985 215.926 321.183 215.926 321.183 215.926C321.183 215.926 321.183 215.728 321.183 215.332V213.442C321.183 213.046 321.183 212.848 321.183 212.848C321.183 212.848 320.985 212.848 320.589 212.848H314.433C314.037 212.848 313.839 212.848 313.839 212.848C313.839 212.848 313.839 213.046 313.839 213.442V215.332C313.839 215.728 313.839 215.926 313.839 215.926C313.839 215.926 314.037 215.926 314.433 215.926ZM325.956 223V210.04H337.926V212.848H328.782V215.116H336.144V217.924H328.782V220.192H337.926V223H325.956ZM342.365 223C341.633 223 341.003 222.742 340.475 222.226C339.959 221.698 339.701 221.068 339.701 220.336V212.704C339.701 211.972 339.959 211.348 340.475 210.832C341.003 210.304 341.633 210.04 342.365 210.04H352.625V212.848H343.085C342.689 212.848 342.491 212.848 342.491 212.848C342.491 212.848 342.491 213.046 342.491 213.442V219.598C342.491 219.994 342.491 220.192 342.491 220.192C342.491 220.192 342.689 220.192 343.085 220.192H352.625V223H342.365ZM358.93 223V212.848H353.854V210.04H366.814V212.848H361.738V223H358.93ZM368.178 223V210.022H370.968V220.192H381.138V223H368.178ZM384.509 223V218.158L378.515 210.04H381.845L385.913 215.152L389.963 210.04H393.329L387.317 218.176V223H384.509ZM393.683 225.394V220.444H396.437V222.712C396.437 223.36 396.173 223.936 395.645 224.44C395.117 224.944 394.463 225.262 393.683 225.394ZM225.277 246L217.771 233.04H221.011L226.447 242.454L231.883 233.04H235.105L227.599 246H225.277ZM236.129 246V233.04H238.883V246H236.129ZM240.087 246V235.704C240.087 234.972 240.345 234.348 240.861 233.832C241.389 233.304 242.019 233.04 242.751 233.04H250.365C251.097 233.04 251.727 233.304 252.255 233.832C252.783 234.348 253.047 234.972 253.047 235.704V246H250.221V241.824H242.877V246H240.087ZM242.877 239.016H250.221V236.442C250.221 236.046 250.221 235.848 250.221 235.848C250.221 235.848 250.023 235.848 249.627 235.848H243.471C243.075 235.848 242.877 235.848 242.877 235.848C242.877 235.848 242.877 236.046 242.877 236.442V239.016ZM263.527 246C262.795 246 262.165 245.742 261.637 245.226C261.121 244.698 260.863 244.068 260.863 243.336V235.704C260.863 234.972 261.121 234.348 261.637 233.832C262.165 233.304 262.795 233.04 263.527 233.04H271.159C271.879 233.04 272.503 233.304 273.031 233.832C273.559 234.348 273.823 234.972 273.823 235.704V243.336C273.823 244.068 273.559 244.698 273.031 245.226C272.503 245.742 271.879 246 271.159 246H263.527ZM264.247 243.192H270.403C270.799 243.192 270.997 243.192 270.997 243.192C270.997 243.192 270.997 242.994 270.997 242.598V236.442C270.997 236.046 270.997 235.848 270.997 235.848C270.997 235.848 270.799 235.848 270.403 235.848H264.247C263.851 235.848 263.653 235.848 263.653 235.848C263.653 235.848 263.653 236.046 263.653 236.442V242.598C263.653 242.994 263.653 243.192 263.653 243.192C263.653 243.192 263.851 243.192 264.247 243.192ZM278.433 246C277.701 246 277.071 245.742 276.543 245.226C276.027 244.698 275.769 244.068 275.769 243.336V233.04H278.559V242.598C278.559 242.994 278.559 243.192 278.559 243.192C278.559 243.192 278.757 243.192 279.153 243.192H285.309C285.705 243.192 285.903 243.192 285.903 243.192C285.903 243.192 285.903 242.994 285.903 242.598V233.04H288.729V243.336C288.729 244.068 288.465 244.698 287.937 245.226C287.409 245.742 286.785 246 286.065 246H278.433ZM290.693 246V233.058H300.971C301.703 233.058 302.333 233.322 302.861 233.85C303.389 234.378 303.653 235.002 303.653 235.722V239.07C303.653 239.79 303.389 240.414 302.861 240.942C302.333 241.47 301.703 241.734 300.971 241.734H300.845L303.653 245.046V246H300.773L297.191 241.734L293.483 241.752V246H290.693ZM294.077 238.926H300.233C300.629 238.926 300.827 238.926 300.827 238.926C300.827 238.926 300.827 238.728 300.827 238.332V236.442C300.827 236.046 300.827 235.848 300.827 235.848C300.827 235.848 300.629 235.848 300.233 235.848H294.077C293.681 235.848 293.483 235.848 293.483 235.848C293.483 235.848 293.483 236.046 293.483 236.442V238.332C293.483 238.728 293.483 238.926 293.483 238.926C293.483 238.926 293.681 238.926 294.077 238.926ZM311.401 246V233.04H323.371V235.848H314.227V238.116H321.589V240.924H314.227V246H311.401ZM324.391 246V233.022H327.181V243.192H337.351V246H324.391ZM341.029 246C340.297 246 339.667 245.742 339.139 245.226C338.623 244.698 338.365 244.068 338.365 243.336V235.704C338.365 234.972 338.623 234.348 339.139 233.832C339.667 233.304 340.297 233.04 341.029 233.04H348.661C349.381 233.04 350.005 233.304 350.533 233.832C351.061 234.348 351.325 234.972 351.325 235.704V243.336C351.325 244.068 351.061 244.698 350.533 245.226C350.005 245.742 349.381 246 348.661 246H341.029ZM341.749 243.192H347.905C348.301 243.192 348.499 243.192 348.499 243.192C348.499 243.192 348.499 242.994 348.499 242.598V236.442C348.499 236.046 348.499 235.848 348.499 235.848C348.499 235.848 348.301 235.848 347.905 235.848H341.749C341.353 235.848 341.155 235.848 341.155 235.848C341.155 235.848 341.155 236.046 341.155 236.442V242.598C341.155 242.994 341.155 243.192 341.155 243.192C341.155 243.192 341.353 243.192 341.749 243.192ZM355.935 246C355.203 246 354.573 245.742 354.045 245.226C353.529 244.698 353.271 244.068 353.271 243.336V235.704C353.271 234.972 353.529 234.348 354.045 233.832C354.573 233.304 355.203 233.04 355.935 233.04H363.567C364.287 233.04 364.911 233.304 365.439 233.832C365.967 234.348 366.231 234.972 366.231 235.704V243.336C366.231 244.068 365.967 244.698 365.439 245.226C364.911 245.742 364.287 246 363.567 246H355.935ZM356.655 243.192H362.811C363.207 243.192 363.405 243.192 363.405 243.192C363.405 243.192 363.405 242.994 363.405 242.598V236.442C363.405 236.046 363.405 235.848 363.405 235.848C363.405 235.848 363.207 235.848 362.811 235.848H356.655C356.259 235.848 356.061 235.848 356.061 235.848C356.061 235.848 356.061 236.046 356.061 236.442V242.598C356.061 242.994 356.061 243.192 356.061 243.192C356.061 243.192 356.259 243.192 356.655 243.192ZM368.195 246V233.058H378.473C379.205 233.058 379.835 233.322 380.363 233.85C380.891 234.378 381.155 235.002 381.155 235.722V239.07C381.155 239.79 380.891 240.414 380.363 240.942C379.835 241.47 379.205 241.734 378.473 241.734H378.347L381.155 245.046V246H378.275L374.693 241.734L370.985 241.752V246H368.195ZM371.579 238.926H377.735C378.131 238.926 378.329 238.926 378.329 238.926C378.329 238.926 378.329 238.728 378.329 238.332V236.442C378.329 236.046 378.329 235.848 378.329 235.848C378.329 235.848 378.131 235.848 377.735 235.848H371.579C371.183 235.848 370.985 235.848 370.985 235.848C370.985 235.848 370.985 236.046 370.985 236.442V238.332C370.985 238.728 370.985 238.926 370.985 238.926C370.985 238.926 371.183 238.926 371.579 238.926ZM184.654 269C183.922 269 183.292 268.742 182.764 268.226C182.248 267.698 181.99 267.068 181.99 266.336V265.13H184.78V265.598C184.78 265.994 184.78 266.192 184.78 266.192C184.78 266.192 184.978 266.192 185.374 266.192H191.53C191.926 266.192 192.124 266.192 192.124 266.192C192.124 266.192 192.124 265.994 192.124 265.598V264.518C192.124 264.122 192.124 263.924 192.124 263.924C192.124 263.924 191.926 263.924 191.53 263.924H184.654C183.922 263.924 183.292 263.666 182.764 263.15C182.248 262.622 181.99 261.992 181.99 261.26V258.704C181.99 257.972 182.248 257.348 182.764 256.832C183.292 256.304 183.922 256.04 184.654 256.04H192.286C193.006 256.04 193.63 256.304 194.158 256.832C194.686 257.348 194.95 257.972 194.95 258.704V259.91H192.124V259.442C192.124 259.046 192.124 258.848 192.124 258.848C192.124 258.848 191.926 258.848 191.53 258.848H185.374C184.978 258.848 184.78 258.848 184.78 258.848C184.78 258.848 184.78 259.046 184.78 259.442V260.522C184.78 260.918 184.78 261.116 184.78 261.116C184.78 261.116 184.978 261.116 185.374 261.116H192.286C193.006 261.116 193.63 261.38 194.158 261.908C194.686 262.424 194.95 263.048 194.95 263.78V266.336C194.95 267.068 194.686 267.698 194.158 268.226C193.63 268.742 193.006 269 192.286 269H184.654ZM200.672 269L195.956 256.04H198.926L201.752 263.762L204.578 256.04H207.152L209.996 263.762L212.822 256.04H215.774L211.058 269H208.916L205.856 260.666L202.814 269H200.672ZM217.587 269V256.04H229.557V258.848H220.413V261.116H227.775V263.924H220.413V266.192H229.557V269H217.587ZM231.368 269V256.04H243.338V258.848H234.194V261.116H241.556V263.924H234.194V266.192H243.338V269H231.368ZM245.113 269V256.058H255.391C256.123 256.058 256.753 256.322 257.281 256.85C257.809 257.378 258.073 258.002 258.073 258.722V262.07C258.073 262.79 257.809 263.414 257.281 263.942C256.753 264.47 256.123 264.734 255.391 264.734L247.903 264.752V269H245.113ZM248.497 261.926H254.653C255.049 261.926 255.247 261.926 255.247 261.926C255.247 261.926 255.247 261.728 255.247 261.332V259.442C255.247 259.046 255.247 258.848 255.247 258.848C255.247 258.848 255.049 258.848 254.653 258.848H248.497C248.101 258.848 247.903 258.848 247.903 258.848C247.903 258.848 247.903 259.046 247.903 259.442V261.332C247.903 261.728 247.903 261.926 247.903 261.926C247.903 261.926 248.101 261.926 248.497 261.926ZM259.28 269V256.04H262.034V269H259.28ZM263.201 269V256.04H266.081L273.335 264.68V256.04H276.161V269H273.281L265.991 260.324V269H263.201ZM280.842 269C280.11 269 279.48 268.742 278.952 268.226C278.436 267.698 278.178 267.068 278.178 266.336V258.704C278.178 257.972 278.436 257.348 278.952 256.832C279.48 256.304 280.11 256.04 280.842 256.04H288.456C289.188 256.04 289.818 256.304 290.346 256.832C290.874 257.348 291.138 257.972 291.138 258.704V259.928H288.312V259.442C288.312 259.046 288.312 258.848 288.312 258.848C288.312 258.848 288.114 258.848 287.718 258.848H281.562C281.166 258.848 280.968 258.848 280.968 258.848C280.968 258.848 280.968 259.046 280.968 259.442V265.598C280.968 265.994 280.968 266.192 280.968 266.192C280.968 266.192 281.166 266.192 281.562 266.192H287.718C288.114 266.192 288.312 266.192 288.312 266.192C288.312 266.192 288.312 265.994 288.312 265.598V264.248H285.504V261.44H291.138V266.336C291.138 267.068 290.874 267.698 290.346 268.226C289.818 268.742 289.188 269 288.456 269H280.842ZM298.92 269V256.04H301.8L306.192 261.278L310.566 256.04H313.464V269H310.656V260.306L306.192 265.634L301.71 260.324V269H298.92ZM315.655 269V256.04H327.625V258.848H318.481V261.116H325.843V263.924H318.481V266.192H327.625V269H315.655ZM332.065 269C331.333 269 330.703 268.742 330.175 268.226C329.659 267.698 329.401 267.068 329.401 266.336V258.704C329.401 257.972 329.659 257.348 330.175 256.832C330.703 256.304 331.333 256.04 332.065 256.04H342.325V258.848H332.785C332.389 258.848 332.191 258.848 332.191 258.848C332.191 258.848 332.191 259.046 332.191 259.442V265.598C332.191 265.994 332.191 266.192 332.191 266.192C332.191 266.192 332.389 266.192 332.785 266.192H342.325V269H332.065ZM344.219 269V256.04H347.009V261.116H354.659V256.04H357.449V269H354.659V263.924H347.009V269H344.219ZM359.548 269V258.704C359.548 257.972 359.806 257.348 360.322 256.832C360.85 256.304 361.48 256.04 362.212 256.04H369.826C370.558 256.04 371.188 256.304 371.716 256.832C372.244 257.348 372.508 257.972 372.508 258.704V269H369.682V264.824H362.338V269H359.548ZM362.338 262.016H369.682V259.442C369.682 259.046 369.682 258.848 369.682 258.848C369.682 258.848 369.484 258.848 369.088 258.848H362.932C362.536 258.848 362.338 258.848 362.338 258.848C362.338 258.848 362.338 259.046 362.338 259.442V262.016ZM374.559 269V256.04H377.439L384.693 264.68V256.04H387.519V269H384.639L377.349 260.324V269H374.559ZM389.463 269V256.04H392.217V269H389.463ZM396.013 269C395.281 269 394.651 268.742 394.123 268.226C393.607 267.698 393.349 267.068 393.349 266.336V265.13H396.139V265.598C396.139 265.994 396.139 266.192 396.139 266.192C396.139 266.192 396.337 266.192 396.733 266.192H402.889C403.285 266.192 403.483 266.192 403.483 266.192C403.483 266.192 403.483 265.994 403.483 265.598V264.518C403.483 264.122 403.483 263.924 403.483 263.924C403.483 263.924 403.285 263.924 402.889 263.924H396.013C395.281 263.924 394.651 263.666 394.123 263.15C393.607 262.622 393.349 261.992 393.349 261.26V258.704C393.349 257.972 393.607 257.348 394.123 256.832C394.651 256.304 395.281 256.04 396.013 256.04H403.645C404.365 256.04 404.989 256.304 405.517 256.832C406.045 257.348 406.309 257.972 406.309 258.704V259.91H403.483V259.442C403.483 259.046 403.483 258.848 403.483 258.848C403.483 258.848 403.285 258.848 402.889 258.848H396.733C396.337 258.848 396.139 258.848 396.139 258.848C396.139 258.848 396.139 259.046 396.139 259.442V260.522C396.139 260.918 396.139 261.116 396.139 261.116C396.139 261.116 396.337 261.116 396.733 261.116H403.645C404.365 261.116 404.989 261.38 405.517 261.908C406.045 262.424 406.309 263.048 406.309 263.78V266.336C406.309 267.068 406.045 267.698 405.517 268.226C404.989 268.742 404.365 269 403.645 269H396.013ZM408.291 269V256.04H411.171L415.563 261.278L419.937 256.04H422.835V269H420.027V260.306L415.563 265.634L411.081 260.324V269H408.291Z" fill="white"/>
<path d="M506.456 185V172.04H518.426V174.848H509.282V177.116H516.644V179.924H509.282V182.192H518.426V185H506.456ZM520.237 185V174.704C520.237 173.972 520.495 173.348 521.011 172.832C521.539 172.304 522.169 172.04 522.901 172.04H530.515C531.247 172.04 531.877 172.304 532.405 172.832C532.933 173.348 533.197 173.972 533.197 174.704V185H530.371V180.824H523.027V185H520.237ZM523.027 178.016H530.371V175.442C530.371 175.046 530.371 174.848 530.371 174.848C530.371 174.848 530.173 174.848 529.777 174.848H523.621C523.225 174.848 523.027 174.848 523.027 174.848C523.027 174.848 523.027 175.046 523.027 175.442V178.016ZM535.23 185V172.058H545.508C546.24 172.058 546.87 172.322 547.398 172.85C547.926 173.378 548.19 174.002 548.19 174.722V178.07C548.19 178.79 547.926 179.414 547.398 179.942C546.87 180.47 546.24 180.734 545.508 180.734H545.382L548.19 184.046V185H545.31L541.728 180.734L538.02 180.752V185H535.23ZM538.614 177.926H544.77C545.166 177.926 545.364 177.926 545.364 177.926C545.364 177.926 545.364 177.728 545.364 177.332V175.442C545.364 175.046 545.364 174.848 545.364 174.848C545.364 174.848 545.166 174.848 544.77 174.848H538.614C538.218 174.848 538.02 174.848 538.02 174.848C538.02 174.848 538.02 175.046 538.02 175.442V177.332C538.02 177.728 538.02 177.926 538.02 177.926C538.02 177.926 538.218 177.926 538.614 177.926ZM550.102 185V172.04H552.982L560.236 180.68V172.04H563.062V185H560.182L552.892 176.324V185H550.102ZM570.807 185V172.04H573.561V185H570.807ZM574.729 185V172.04H577.609L584.863 180.68V172.04H587.689V185H584.809L577.519 176.324V185H574.729ZM589.741 185V172.04H600.019C600.751 172.04 601.381 172.304 601.909 172.832C602.437 173.348 602.701 173.972 602.701 174.704V182.336C602.701 183.068 602.437 183.698 601.909 184.226C601.381 184.742 600.751 185 600.019 185H589.741ZM593.125 182.192H599.281C599.677 182.192 599.875 182.192 599.875 182.192C599.875 182.192 599.875 181.994 599.875 181.598V175.442C599.875 175.046 599.875 174.848 599.875 174.848C599.875 174.848 599.677 174.848 599.281 174.848H593.125C592.729 174.848 592.531 174.848 592.531 174.848C592.531 174.848 592.531 175.046 592.531 175.442V181.598C592.531 181.994 592.531 182.192 592.531 182.192C592.531 182.192 592.729 182.192 593.125 182.192ZM604.753 185V172.04H616.723V174.848H607.579V177.116H614.941V179.924H607.579V182.192H616.723V185H604.753ZM618.48 185V172.058H628.758C629.49 172.058 630.12 172.322 630.648 172.85C631.176 173.378 631.44 174.002 631.44 174.722V178.07C631.44 178.79 631.176 179.414 630.648 179.942C630.12 180.47 629.49 180.734 628.758 180.734H628.632L631.44 184.046V185H628.56L624.978 180.734L621.27 180.752V185H618.48ZM621.864 177.926H628.02C628.416 177.926 628.614 177.926 628.614 177.926C628.614 177.926 628.614 177.728 628.614 177.332V175.442C628.614 175.046 628.614 174.848 628.614 174.848C628.614 174.848 628.416 174.848 628.02 174.848H621.864C621.468 174.848 621.27 174.848 621.27 174.848C621.27 174.848 621.27 175.046 621.27 175.442V177.332C621.27 177.728 621.27 177.926 621.27 177.926C621.27 177.926 621.468 177.926 621.864 177.926ZM633.28 185V172.04H636.034V185H633.28ZM639.865 185C639.133 185 638.503 184.742 637.975 184.226C637.459 183.698 637.201 183.068 637.201 182.336V174.704C637.201 173.972 637.459 173.348 637.975 172.832C638.503 172.304 639.133 172.04 639.865 172.04H650.125V174.848H640.585C640.189 174.848 639.991 174.848 639.991 174.848C639.991 174.848 639.991 175.046 639.991 175.442V181.598C639.991 181.994 639.991 182.192 639.991 182.192C639.991 182.192 640.189 182.192 640.585 182.192H650.125V185H639.865ZM656.43 185V174.848H651.354V172.04H664.314V174.848H659.238V185H656.43ZM665.678 185V172.022H668.468V182.192H678.638V185H665.678ZM682.009 185V180.158L676.015 172.04H679.345L683.413 177.152L687.463 172.04H690.829L684.817 180.176V185H682.009ZM691.183 187.394V182.444H693.937V184.712C693.937 185.36 693.673 185.936 693.145 186.44C692.617 186.944 691.963 187.262 691.183 187.394ZM537.736 208V195.04H548.014C548.746 195.04 549.376 195.304 549.904 195.832C550.432 196.348 550.696 196.972 550.696 197.704V205.336C550.696 206.068 550.432 206.698 549.904 207.226C549.376 207.742 548.746 208 548.014 208H537.736ZM541.12 205.192H547.276C547.672 205.192 547.87 205.192 547.87 205.192C547.87 205.192 547.87 204.994 547.87 204.598V198.442C547.87 198.046 547.87 197.848 547.87 197.848C547.87 197.848 547.672 197.848 547.276 197.848H541.12C540.724 197.848 540.526 197.848 540.526 197.848C540.526 197.848 540.526 198.046 540.526 198.442V204.598C540.526 204.994 540.526 205.192 540.526 205.192C540.526 205.192 540.724 205.192 541.12 205.192ZM555.34 208C554.608 208 553.978 207.742 553.45 207.226C552.934 206.698 552.676 206.068 552.676 205.336V195.04H555.466V204.598C555.466 204.994 555.466 205.192 555.466 205.192C555.466 205.192 555.664 205.192 556.06 205.192H562.216C562.612 205.192 562.81 205.192 562.81 205.192C562.81 205.192 562.81 204.994 562.81 204.598V195.04H565.636V205.336C565.636 206.068 565.372 206.698 564.844 207.226C564.316 207.742 563.692 208 562.972 208H555.34ZM567.654 208V195.04H579.624V197.848H570.48V200.116H577.842V202.924H570.48V205.192H579.624V208H567.654ZM591.628 208V197.848H586.552V195.04H599.512V197.848H594.436V208H591.628ZM603.487 208C602.755 208 602.125 207.742 601.597 207.226C601.081 206.698 600.823 206.068 600.823 205.336V197.704C600.823 196.972 601.081 196.348 601.597 195.832C602.125 195.304 602.755 195.04 603.487 195.04H611.119C611.839 195.04 612.463 195.304 612.991 195.832C613.519 196.348 613.783 196.972 613.783 197.704V205.336C613.783 206.068 613.519 206.698 612.991 207.226C612.463 207.742 611.839 208 611.119 208H603.487ZM604.207 205.192H610.363C610.759 205.192 610.957 205.192 610.957 205.192C610.957 205.192 610.957 204.994 610.957 204.598V198.442C610.957 198.046 610.957 197.848 610.957 197.848C610.957 197.848 610.759 197.848 610.363 197.848H604.207C603.811 197.848 603.613 197.848 603.613 197.848C603.613 197.848 603.613 198.046 603.613 198.442V204.598C603.613 204.994 603.613 205.192 603.613 205.192C603.613 205.192 603.811 205.192 604.207 205.192ZM625.994 208V197.848H620.918V195.04H633.878V197.848H628.802V208H625.994ZM635.242 208V195.04H638.032V200.116H645.682V195.04H648.472V208H645.682V202.924H638.032V208H635.242ZM650.57 208V195.04H662.54V197.848H653.396V200.116H660.758V202.924H653.396V205.192H662.54V208H650.57ZM503.389 231V218.04H515.359V220.848H506.215V223.116H513.577V225.924H506.215V228.192H515.359V231H503.389ZM519.798 231C519.066 231 518.436 230.742 517.908 230.226C517.392 229.698 517.134 229.068 517.134 228.336V220.704C517.134 219.972 517.392 219.348 517.908 218.832C518.436 218.304 519.066 218.04 519.798 218.04H530.058V220.848H520.518C520.122 220.848 519.924 220.848 519.924 220.848C519.924 220.848 519.924 221.046 519.924 221.442V227.598C519.924 227.994 519.924 228.192 519.924 228.192C519.924 228.192 520.122 228.192 520.518 228.192H530.058V231H519.798ZM534.563 231C533.831 231 533.201 230.742 532.673 230.226C532.157 229.698 531.899 229.068 531.899 228.336V220.704C531.899 219.972 532.157 219.348 532.673 218.832C533.201 218.304 533.831 218.04 534.563 218.04H542.195C542.915 218.04 543.539 218.304 544.067 218.832C544.595 219.348 544.859 219.972 544.859 220.704V228.336C544.859 229.068 544.595 229.698 544.067 230.226C543.539 230.742 542.915 231 542.195 231H534.563ZM535.283 228.192H541.439C541.835 228.192 542.033 228.192 542.033 228.192C542.033 228.192 542.033 227.994 542.033 227.598V221.442C542.033 221.046 542.033 220.848 542.033 220.848C542.033 220.848 541.835 220.848 541.439 220.848H535.283C534.887 220.848 534.689 220.848 534.689 220.848C534.689 220.848 534.689 221.046 534.689 221.442V227.598C534.689 227.994 534.689 228.192 534.689 228.192C534.689 228.192 534.887 228.192 535.283 228.192ZM549.469 231C548.737 231 548.107 230.742 547.579 230.226C547.063 229.698 546.805 229.068 546.805 228.336V227.13H549.595V227.598C549.595 227.994 549.595 228.192 549.595 228.192C549.595 228.192 549.793 228.192 550.189 228.192H556.345C556.741 228.192 556.939 228.192 556.939 228.192C556.939 228.192 556.939 227.994 556.939 227.598V226.518C556.939 226.122 556.939 225.924 556.939 225.924C556.939 225.924 556.741 225.924 556.345 225.924H549.469C548.737 225.924 548.107 225.666 547.579 225.15C547.063 224.622 546.805 223.992 546.805 223.26V220.704C546.805 219.972 547.063 219.348 547.579 218.832C548.107 218.304 548.737 218.04 549.469 218.04H557.101C557.821 218.04 558.445 218.304 558.973 218.832C559.501 219.348 559.765 219.972 559.765 220.704V221.91H556.939V221.442C556.939 221.046 556.939 220.848 556.939 220.848C556.939 220.848 556.741 220.848 556.345 220.848H550.189C549.793 220.848 549.595 220.848 549.595 220.848C549.595 220.848 549.595 221.046 549.595 221.442V222.522C549.595 222.918 549.595 223.116 549.595 223.116C549.595 223.116 549.793 223.116 550.189 223.116H557.101C557.821 223.116 558.445 223.38 558.973 223.908C559.501 224.424 559.765 225.048 559.765 225.78V228.336C559.765 229.068 559.501 229.698 558.973 230.226C558.445 230.742 557.821 231 557.101 231H549.469ZM567.039 231V226.158L561.045 218.04H564.375L568.443 223.152L572.493 218.04H575.859L569.847 226.176V231H567.039ZM578.877 231C578.145 231 577.515 230.742 576.987 230.226C576.471 229.698 576.213 229.068 576.213 228.336V227.13H579.003V227.598C579.003 227.994 579.003 228.192 579.003 228.192C579.003 228.192 579.201 228.192 579.597 228.192H585.753C586.149 228.192 586.347 228.192 586.347 228.192C586.347 228.192 586.347 227.994 586.347 227.598V226.518C586.347 226.122 586.347 225.924 586.347 225.924C586.347 225.924 586.149 225.924 585.753 225.924H578.877C578.145 225.924 577.515 225.666 576.987 225.15C576.471 224.622 576.213 223.992 576.213 223.26V220.704C576.213 219.972 576.471 219.348 576.987 218.832C577.515 218.304 578.145 218.04 578.877 218.04H586.509C587.229 218.04 587.853 218.304 588.381 218.832C588.909 219.348 589.173 219.972 589.173 220.704V221.91H586.347V221.442C586.347 221.046 586.347 220.848 586.347 220.848C586.347 220.848 586.149 220.848 585.753 220.848H579.597C579.201 220.848 579.003 220.848 579.003 220.848C579.003 220.848 579.003 221.046 579.003 221.442V222.522C579.003 222.918 579.003 223.116 579.003 223.116C579.003 223.116 579.201 223.116 579.597 223.116H586.509C587.229 223.116 587.853 223.38 588.381 223.908C588.909 224.424 589.173 225.048 589.173 225.78V228.336C589.173 229.068 588.909 229.698 588.381 230.226C587.853 230.742 587.229 231 586.509 231H578.877ZM595.583 231V220.848H590.507V218.04H603.467V220.848H598.391V231H595.583ZM604.85 231V218.04H616.82V220.848H607.676V223.116H615.038V225.924H607.676V228.192H616.82V231H604.85ZM618.261 231V218.04H621.141L625.533 223.278L629.907 218.04H632.805V231H629.997V222.306L625.533 227.634L621.051 222.324V231H618.261ZM640.797 231V218.04H652.767V220.848H643.623V223.116H650.985V225.924H643.623V231H640.797ZM656.397 231C655.665 231 655.035 230.742 654.507 230.226C653.991 229.698 653.733 229.068 653.733 228.336V218.04H656.523V227.598C656.523 227.994 656.523 228.192 656.523 228.192C656.523 228.192 656.721 228.192 657.117 228.192H663.273C663.669 228.192 663.867 228.192 663.867 228.192C663.867 228.192 663.867 227.994 663.867 227.598V218.04H666.693V228.336C666.693 229.068 666.429 229.698 665.901 230.226C665.373 230.742 664.749 231 664.029 231H656.397ZM668.675 231V218.04H671.555L678.809 226.68V218.04H681.635V231H678.755L671.465 222.324V231H668.675ZM683.688 231V218.04H693.966C694.698 218.04 695.328 218.304 695.856 218.832C696.384 219.348 696.648 219.972 696.648 220.704V228.336C696.648 229.068 696.384 229.698 695.856 230.226C695.328 230.742 694.698 231 693.966 231H683.688ZM687.072 228.192H693.228C693.624 228.192 693.822 228.192 693.822 228.192C693.822 228.192 693.822 227.994 693.822 227.598V221.442C693.822 221.046 693.822 220.848 693.822 220.848C693.822 220.848 693.624 220.848 693.228 220.848H687.072C686.676 220.848 686.478 220.848 686.478 220.848C686.478 220.848 686.478 221.046 686.478 221.442V227.598C686.478 227.994 686.478 228.192 686.478 228.192C686.478 228.192 686.676 228.192 687.072 228.192Z" fill="white"/>
<path d="M784.449 117V104.04H796.419V106.848H787.275V109.116H794.637V111.924H787.275V114.192H796.419V117H784.449ZM798.231 117V106.704C798.231 105.972 798.489 105.348 799.005 104.832C799.533 104.304 800.163 104.04 800.895 104.04H808.509C809.241 104.04 809.871 104.304 810.399 104.832C810.927 105.348 811.191 105.972 811.191 106.704V117H808.365V112.824H801.021V117H798.231ZM801.021 110.016H808.365V107.442C808.365 107.046 808.365 106.848 808.365 106.848C808.365 106.848 808.167 106.848 807.771 106.848H801.615C801.219 106.848 801.021 106.848 801.021 106.848C801.021 106.848 801.021 107.046 801.021 107.442V110.016ZM813.223 117V104.058H823.501C824.233 104.058 824.863 104.322 825.391 104.85C825.919 105.378 826.183 106.002 826.183 106.722V110.07C826.183 110.79 825.919 111.414 825.391 111.942C824.863 112.47 824.233 112.734 823.501 112.734H823.375L826.183 116.046V117H823.303L819.721 112.734L816.013 112.752V117H813.223ZM816.607 109.926H822.763C823.159 109.926 823.357 109.926 823.357 109.926C823.357 109.926 823.357 109.728 823.357 109.332V107.442C823.357 107.046 823.357 106.848 823.357 106.848C823.357 106.848 823.159 106.848 822.763 106.848H816.607C816.211 106.848 816.013 106.848 816.013 106.848C816.013 106.848 816.013 107.046 816.013 107.442V109.332C816.013 109.728 816.013 109.926 816.013 109.926C816.013 109.926 816.211 109.926 816.607 109.926ZM828.095 117V104.04H830.975L838.229 112.68V104.04H841.055V117H838.175L830.885 108.324V117H828.095ZM851.446 117C850.726 117 850.108 116.742 849.592 116.226C849.076 115.71 848.818 115.098 848.818 114.39V113.382H851.572V113.652C851.572 114.048 851.572 114.246 851.572 114.246C851.572 114.246 851.77 114.246 852.166 114.246H858.196C858.592 114.246 858.79 114.246 858.79 114.246C858.79 114.246 858.79 114.048 858.79 113.652V112.446C858.79 112.05 858.79 111.852 858.79 111.852C858.79 111.852 858.592 111.852 858.196 111.852H850.942V109.098H857.71C858.106 109.098 858.304 109.098 858.304 109.098C858.304 109.098 858.304 108.9 858.304 108.504V107.388C858.304 106.992 858.304 106.794 858.304 106.794C858.304 106.794 858.106 106.794 857.71 106.794H852.166C851.77 106.794 851.572 106.794 851.572 106.794C851.572 106.794 851.572 106.992 851.572 107.388V107.802H848.818V106.65C848.818 105.93 849.076 105.318 849.592 104.814C850.108 104.298 850.726 104.04 851.446 104.04H858.448C859.168 104.04 859.78 104.298 860.284 104.814C860.8 105.318 861.058 105.93 861.058 106.65V109.242C861.058 109.374 861.046 109.518 861.022 109.674C861.01 109.818 860.986 109.95 860.95 110.07C861.13 110.286 861.274 110.538 861.382 110.826C861.49 111.102 861.544 111.396 861.544 111.708V114.39C861.544 115.098 861.286 115.71 860.77 116.226C860.266 116.742 859.654 117 858.934 117H851.446ZM863.707 117V114.246H866.461V117H863.707ZM870.591 117C869.871 117 869.253 116.742 868.737 116.226C868.221 115.71 867.963 115.098 867.963 114.39V113.382H870.717V113.652C870.717 114.048 870.717 114.246 870.717 114.246C870.717 114.246 870.915 114.246 871.311 114.246H877.341C877.737 114.246 877.935 114.246 877.935 114.246C877.935 114.246 877.935 114.048 877.935 113.652V112.41C877.935 112.014 877.935 111.816 877.935 111.816C877.935 111.816 877.737 111.816 877.341 111.816H867.963V104.04H880.689V106.794H871.311C870.915 106.794 870.717 106.794 870.717 106.794C870.717 106.794 870.717 106.992 870.717 107.388V108.45C870.717 108.846 870.717 109.044 870.717 109.044C870.717 109.044 870.915 109.044 871.311 109.044H878.061C878.781 109.044 879.399 109.302 879.915 109.818C880.431 110.322 880.689 110.934 880.689 111.654V114.39C880.689 115.098 880.431 115.71 879.915 116.226C879.399 116.742 878.781 117 878.061 117H870.591ZM884.29 117V114.174L896.098 104.058H897.016V106.866L885.208 117H884.29ZM885.19 110.358C884.47 110.358 883.882 110.13 883.426 109.674C882.97 109.218 882.742 108.63 882.742 107.91V106.614C882.742 105.894 882.97 105.312 883.426 104.868C883.882 104.412 884.47 104.184 885.19 104.184H886.648C887.368 104.184 887.956 104.412 888.412 104.868C888.868 105.312 889.096 105.894 889.096 106.614V107.91C889.096 108.63 888.868 109.218 888.412 109.674C887.956 110.13 887.368 110.358 886.648 110.358H885.19ZM885.586 108.09H886.234C886.402 108.09 886.54 108.036 886.648 107.928C886.768 107.808 886.828 107.664 886.828 107.496V107.028C886.828 106.86 886.768 106.722 886.648 106.614C886.54 106.494 886.402 106.434 886.234 106.434H885.586C885.418 106.434 885.274 106.494 885.154 106.614C885.046 106.722 884.992 106.86 884.992 107.028V107.496C884.992 107.664 885.046 107.808 885.154 107.928C885.274 108.036 885.418 108.09 885.586 108.09ZM894.334 116.838C893.626 116.838 893.044 116.61 892.588 116.154C892.132 115.698 891.904 115.11 891.904 114.39V113.094C891.904 112.374 892.132 111.792 892.588 111.348C893.044 110.892 893.626 110.664 894.334 110.664H895.792C896.512 110.664 897.1 110.892 897.556 111.348C898.012 111.792 898.24 112.374 898.24 113.094V114.39C898.24 115.11 898.012 115.698 897.556 116.154C897.1 116.61 896.512 116.838 895.792 116.838H894.334ZM894.748 114.588H895.396C895.564 114.588 895.702 114.534 895.81 114.426C895.93 114.306 895.99 114.162 895.99 113.994V113.508C895.99 113.34 895.93 113.202 895.81 113.094C895.702 112.974 895.564 112.914 895.396 112.914H894.748C894.58 112.914 894.436 112.974 894.316 113.094C894.208 113.202 894.154 113.34 894.154 113.508V113.994C894.154 114.162 894.208 114.306 894.316 114.426C894.436 114.534 894.58 114.588 894.748 114.588ZM906.053 117V104.058H916.331C917.063 104.058 917.693 104.322 918.221 104.85C918.749 105.378 919.013 106.002 919.013 106.722V110.07C919.013 110.79 918.749 111.414 918.221 111.942C917.693 112.47 917.063 112.734 916.331 112.734H916.205L919.013 116.046V117H916.133L912.551 112.734L908.843 112.752V117H906.053ZM909.437 109.926H915.593C915.989 109.926 916.187 109.926 916.187 109.926C916.187 109.926 916.187 109.728 916.187 109.332V107.442C916.187 107.046 916.187 106.848 916.187 106.848C916.187 106.848 915.989 106.848 915.593 106.848H909.437C909.041 106.848 908.843 106.848 908.843 106.848C908.843 106.848 908.843 107.046 908.843 107.442V109.332C908.843 109.728 908.843 109.926 908.843 109.926C908.843 109.926 909.041 109.926 909.437 109.926ZM923.553 117C922.821 117 922.191 116.742 921.663 116.226C921.147 115.698 920.889 115.068 920.889 114.336V106.704C920.889 105.972 921.147 105.348 921.663 104.832C922.191 104.304 922.821 104.04 923.553 104.04H931.185C931.905 104.04 932.529 104.304 933.057 104.832C933.585 105.348 933.849 105.972 933.849 106.704V114.336C933.849 115.068 933.585 115.698 933.057 116.226C932.529 116.742 931.905 117 931.185 117H923.553ZM924.273 114.192H930.429C930.825 114.192 931.023 114.192 931.023 114.192C931.023 114.192 931.023 113.994 931.023 113.598V107.442C931.023 107.046 931.023 106.848 931.023 106.848C931.023 106.848 930.825 106.848 930.429 106.848H924.273C923.877 106.848 923.679 106.848 923.679 106.848C923.679 106.848 923.679 107.046 923.679 107.442V113.598C923.679 113.994 923.679 114.192 923.679 114.192C923.679 114.192 923.877 114.192 924.273 114.192ZM941.123 117V112.158L935.129 104.04H938.459L942.527 109.152L946.577 104.04H949.943L943.931 112.176V117H941.123ZM950.369 117V106.704C950.369 105.972 950.627 105.348 951.143 104.832C951.671 104.304 952.301 104.04 953.033 104.04H960.647C961.379 104.04 962.009 104.304 962.537 104.832C963.065 105.348 963.329 105.972 963.329 106.704V117H960.503V112.824H953.159V117H950.369ZM953.159 110.016H960.503V107.442C960.503 107.046 960.503 106.848 960.503 106.848C960.503 106.848 960.305 106.848 959.909 106.848H953.753C953.357 106.848 953.159 106.848 953.159 106.848C953.159 106.848 953.159 107.046 953.159 107.442V110.016ZM965.398 117V104.022H968.188V114.192H978.358V117H965.398ZM983.835 117V106.848H978.759V104.04H991.719V106.848H986.643V117H983.835ZM992.994 117V104.04H995.748V117H992.994ZM996.951 117V104.04H1008.92V106.848H999.777V109.116H1007.14V111.924H999.777V114.192H1008.92V117H996.951ZM1013.32 117C1012.59 117 1011.96 116.742 1011.43 116.226C1010.92 115.698 1010.66 115.068 1010.66 114.336V113.13H1013.45V113.598C1013.45 113.994 1013.45 114.192 1013.45 114.192C1013.45 114.192 1013.65 114.192 1014.04 114.192H1020.2C1020.6 114.192 1020.79 114.192 1020.79 114.192C1020.79 114.192 1020.79 113.994 1020.79 113.598V112.518C1020.79 112.122 1020.79 111.924 1020.79 111.924C1020.79 111.924 1020.6 111.924 1020.2 111.924H1013.32C1012.59 111.924 1011.96 111.666 1011.43 111.15C1010.92 110.622 1010.66 109.992 1010.66 109.26V106.704C1010.66 105.972 1010.92 105.348 1011.43 104.832C1011.96 104.304 1012.59 104.04 1013.32 104.04H1020.96C1021.68 104.04 1022.3 104.304 1022.83 104.832C1023.36 105.348 1023.62 105.972 1023.62 106.704V107.91H1020.79V107.442C1020.79 107.046 1020.79 106.848 1020.79 106.848C1020.79 106.848 1020.6 106.848 1020.2 106.848H1014.04C1013.65 106.848 1013.45 106.848 1013.45 106.848C1013.45 106.848 1013.45 107.046 1013.45 107.442V108.522C1013.45 108.918 1013.45 109.116 1013.45 109.116C1013.45 109.116 1013.65 109.116 1014.04 109.116H1020.96C1021.68 109.116 1022.3 109.38 1022.83 109.908C1023.36 110.424 1023.62 111.048 1023.62 111.78V114.336C1023.62 115.068 1023.36 115.698 1022.83 116.226C1022.3 116.742 1021.68 117 1020.96 117H1013.32ZM823.684 140V127.04H835.654V129.848H826.51V132.116H833.872V134.924H826.51V140H823.684ZM836.637 140V127.058H846.915C847.647 127.058 848.277 127.322 848.805 127.85C849.333 128.378 849.597 129.002 849.597 129.722V133.07C849.597 133.79 849.333 134.414 848.805 134.942C848.277 135.47 847.647 135.734 846.915 135.734H846.789L849.597 139.046V140H846.717L843.135 135.734L839.427 135.752V140H836.637ZM840.021 132.926H846.177C846.573 132.926 846.771 132.926 846.771 132.926C846.771 132.926 846.771 132.728 846.771 132.332V130.442C846.771 130.046 846.771 129.848 846.771 129.848C846.771 129.848 846.573 129.848 846.177 129.848H840.021C839.625 129.848 839.427 129.848 839.427 129.848C839.427 129.848 839.427 130.046 839.427 130.442V132.332C839.427 132.728 839.427 132.926 839.427 132.926C839.427 132.926 839.625 132.926 840.021 132.926ZM854.137 140C853.405 140 852.775 139.742 852.247 139.226C851.731 138.698 851.473 138.068 851.473 137.336V129.704C851.473 128.972 851.731 128.348 852.247 127.832C852.775 127.304 853.405 127.04 854.137 127.04H861.769C862.489 127.04 863.113 127.304 863.641 127.832C864.169 128.348 864.433 128.972 864.433 129.704V137.336C864.433 138.068 864.169 138.698 863.641 139.226C863.113 139.742 862.489 140 861.769 140H854.137ZM854.857 137.192H861.013C861.409 137.192 861.607 137.192 861.607 137.192C861.607 137.192 861.607 136.994 861.607 136.598V130.442C861.607 130.046 861.607 129.848 861.607 129.848C861.607 129.848 861.409 129.848 861.013 129.848H854.857C854.461 129.848 854.263 129.848 854.263 129.848C854.263 129.848 854.263 130.046 854.263 130.442V136.598C854.263 136.994 854.263 137.192 854.263 137.192C854.263 137.192 854.461 137.192 854.857 137.192ZM866.415 140V127.04H869.295L873.687 132.278L878.061 127.04H880.959V140H878.151V131.306L873.687 136.634L869.205 131.324V140H866.415ZM888.951 140V129.704C888.951 128.972 889.209 128.348 889.725 127.832C890.253 127.304 890.883 127.04 891.615 127.04H899.229C899.961 127.04 900.591 127.304 901.119 127.832C901.647 128.348 901.911 128.972 901.911 129.704V140H899.085V135.824H891.741V140H888.951ZM891.741 133.016H899.085V130.442C899.085 130.046 899.085 129.848 899.085 129.848C899.085 129.848 898.887 129.848 898.491 129.848H892.335C891.939 129.848 891.741 129.848 891.741 129.848C891.741 129.848 891.741 130.046 891.741 130.442V133.016ZM903.98 140V127.022H906.77V137.192H916.94V140H903.98ZM918.007 140V127.022H920.797V137.192H930.967V140H918.007ZM942.246 140V129.848H937.17V127.04H950.13V129.848H945.054V140H942.246ZM951.494 140V127.04H954.284V132.116H961.934V127.04H964.724V140H961.934V134.924H954.284V140H951.494ZM966.822 140V127.04H978.792V129.848H969.648V132.116H977.01V134.924H969.648V137.192H978.792V140H966.822ZM798.819 163V150.04H810.789V152.848H801.645V155.116H809.007V157.924H801.645V163H798.819ZM814.419 163C813.687 163 813.057 162.742 812.529 162.226C812.013 161.698 811.755 161.068 811.755 160.336V150.04H814.545V159.598C814.545 159.994 814.545 160.192 814.545 160.192C814.545 160.192 814.743 160.192 815.139 160.192H821.295C821.691 160.192 821.889 160.192 821.889 160.192C821.889 160.192 821.889 159.994 821.889 159.598V150.04H824.715V160.336C824.715 161.068 824.451 161.698 823.923 162.226C823.395 162.742 822.771 163 822.051 163H814.419ZM831.125 163V152.848H826.049V150.04H839.009V152.848H833.933V163H831.125ZM842.984 163C842.252 163 841.622 162.742 841.094 162.226C840.578 161.698 840.32 161.068 840.32 160.336V150.04H843.11V159.598C843.11 159.994 843.11 160.192 843.11 160.192C843.11 160.192 843.308 160.192 843.704 160.192H849.86C850.256 160.192 850.454 160.192 850.454 160.192C850.454 160.192 850.454 159.994 850.454 159.598V150.04H853.28V160.336C853.28 161.068 853.016 161.698 852.488 162.226C851.96 162.742 851.336 163 850.616 163H842.984ZM855.244 163V150.058H865.522C866.254 150.058 866.884 150.322 867.412 150.85C867.94 151.378 868.204 152.002 868.204 152.722V156.07C868.204 156.79 867.94 157.414 867.412 157.942C866.884 158.47 866.254 158.734 865.522 158.734H865.396L868.204 162.046V163H865.324L861.742 158.734L858.034 158.752V163H855.244ZM858.628 155.926H864.784C865.18 155.926 865.378 155.926 865.378 155.926C865.378 155.926 865.378 155.728 865.378 155.332V153.442C865.378 153.046 865.378 152.848 865.378 152.848C865.378 152.848 865.18 152.848 864.784 152.848H858.628C858.232 152.848 858.034 152.848 858.034 152.848C858.034 152.848 858.034 153.046 858.034 153.442V155.332C858.034 155.728 858.034 155.926 858.034 155.926C858.034 155.926 858.232 155.926 858.628 155.926ZM870.151 163V150.04H882.121V152.848H872.977V155.116H880.339V157.924H872.977V160.192H882.121V163H870.151ZM889.697 163V150.04H892.577L899.831 158.68V150.04H902.657V163H899.777L892.487 154.324V163H889.697ZM904.71 163V150.04H916.68V152.848H907.536V155.116H914.898V157.924H907.536V163H904.71ZM922.286 163V152.848H917.21V150.04H930.17V152.848H925.094V163H922.286ZM937.353 163V150.04H947.631C948.363 150.04 948.993 150.304 949.521 150.832C950.049 151.348 950.313 151.972 950.313 152.704V160.336C950.313 161.068 950.049 161.698 949.521 162.226C948.993 162.742 948.363 163 947.631 163H937.353ZM940.737 160.192H946.893C947.289 160.192 947.487 160.192 947.487 160.192C947.487 160.192 947.487 159.994 947.487 159.598V153.442C947.487 153.046 947.487 152.848 947.487 152.848C947.487 152.848 947.289 152.848 946.893 152.848H940.737C940.341 152.848 940.143 152.848 940.143 152.848C940.143 152.848 940.143 153.046 940.143 153.442V159.598C940.143 159.994 940.143 160.192 940.143 160.192C940.143 160.192 940.341 160.192 940.737 160.192ZM952.31 163V150.058H962.588C963.32 150.058 963.95 150.322 964.478 150.85C965.006 151.378 965.27 152.002 965.27 152.722V156.07C965.27 156.79 965.006 157.414 964.478 157.942C963.95 158.47 963.32 158.734 962.588 158.734H962.462L965.27 162.046V163H962.39L958.808 158.734L955.1 158.752V163H952.31ZM955.694 155.926H961.85C962.246 155.926 962.444 155.926 962.444 155.926C962.444 155.926 962.444 155.728 962.444 155.332V153.442C962.444 153.046 962.444 152.848 962.444 152.848C962.444 152.848 962.246 152.848 961.85 152.848H955.694C955.298 152.848 955.1 152.848 955.1 152.848C955.1 152.848 955.1 153.046 955.1 153.442V155.332C955.1 155.728 955.1 155.926 955.1 155.926C955.1 155.926 955.298 155.926 955.694 155.926ZM969.81 163C969.078 163 968.448 162.742 967.92 162.226C967.404 161.698 967.146 161.068 967.146 160.336V152.704C967.146 151.972 967.404 151.348 967.92 150.832C968.448 150.304 969.078 150.04 969.81 150.04H977.442C978.162 150.04 978.786 150.304 979.314 150.832C979.842 151.348 980.106 151.972 980.106 152.704V160.336C980.106 161.068 979.842 161.698 979.314 162.226C978.786 162.742 978.162 163 977.442 163H969.81ZM970.53 160.192H976.686C977.082 160.192 977.28 160.192 977.28 160.192C977.28 160.192 977.28 159.994 977.28 159.598V153.442C977.28 153.046 977.28 152.848 977.28 152.848C977.28 152.848 977.082 152.848 976.686 152.848H970.53C970.134 152.848 969.936 152.848 969.936 152.848C969.936 152.848 969.936 153.046 969.936 153.442V159.598C969.936 159.994 969.936 160.192 969.936 160.192C969.936 160.192 970.134 160.192 970.53 160.192ZM982.088 163V150.058H992.366C993.098 150.058 993.728 150.322 994.256 150.85C994.784 151.378 995.048 152.002 995.048 152.722V156.07C995.048 156.79 994.784 157.414 994.256 157.942C993.728 158.47 993.098 158.734 992.366 158.734L984.878 158.752V163H982.088ZM985.472 155.926H991.628C992.024 155.926 992.222 155.926 992.222 155.926C992.222 155.926 992.222 155.728 992.222 155.332V153.442C992.222 153.046 992.222 152.848 992.222 152.848C992.222 152.848 992.024 152.848 991.628 152.848H985.472C985.076 152.848 984.878 152.848 984.878 152.848C984.878 152.848 984.878 153.046 984.878 153.442V155.332C984.878 155.728 984.878 155.926 984.878 155.926C984.878 155.926 985.076 155.926 985.472 155.926ZM998.954 163C998.222 163 997.592 162.742 997.064 162.226C996.548 161.698 996.29 161.068 996.29 160.336V159.13H999.08V159.598C999.08 159.994 999.08 160.192 999.08 160.192C999.08 160.192 999.278 160.192 999.674 160.192H1005.83C1006.23 160.192 1006.42 160.192 1006.42 160.192C1006.42 160.192 1006.42 159.994 1006.42 159.598V158.518C1006.42 158.122 1006.42 157.924 1006.42 157.924C1006.42 157.924 1006.23 157.924 1005.83 157.924H998.954C998.222 157.924 997.592 157.666 997.064 157.15C996.548 156.622 996.29 155.992 996.29 155.26V152.704C996.29 151.972 996.548 151.348 997.064 150.832C997.592 150.304 998.222 150.04 998.954 150.04H1006.59C1007.31 150.04 1007.93 150.304 1008.46 150.832C1008.99 151.348 1009.25 151.972 1009.25 152.704V153.91H1006.42V153.442C1006.42 153.046 1006.42 152.848 1006.42 152.848C1006.42 152.848 1006.23 152.848 1005.83 152.848H999.674C999.278 152.848 999.08 152.848 999.08 152.848C999.08 152.848 999.08 153.046 999.08 153.442V154.522C999.08 154.918 999.08 155.116 999.08 155.116C999.08 155.116 999.278 155.116 999.674 155.116H1006.59C1007.31 155.116 1007.93 155.38 1008.46 155.908C1008.99 156.424 1009.25 157.048 1009.25 157.78V160.336C1009.25 161.068 1008.99 161.698 1008.46 162.226C1007.93 162.742 1007.31 163 1006.59 163H998.954Z" fill="white"/>
<path d="M1134.19 18V5.04H1146.16V7.848H1137.01V10.116H1144.38V12.924H1137.01V15.192H1146.16V18H1134.19ZM1147.97 18V7.704C1147.97 6.972 1148.23 6.348 1148.74 5.832C1149.27 5.304 1149.9 5.04 1150.63 5.04H1158.25C1158.98 5.04 1159.61 5.304 1160.14 5.832C1160.66 6.348 1160.93 6.972 1160.93 7.704V18H1158.1V13.824H1150.76V18H1147.97ZM1150.76 11.016H1158.1V8.442C1158.1 8.046 1158.1 7.848 1158.1 7.848C1158.1 7.848 1157.9 7.848 1157.51 7.848H1151.35C1150.96 7.848 1150.76 7.848 1150.76 7.848C1150.76 7.848 1150.76 8.046 1150.76 8.442V11.016ZM1162.96 18V5.058H1173.24C1173.97 5.058 1174.6 5.322 1175.13 5.85C1175.66 6.378 1175.92 7.002 1175.92 7.722V11.07C1175.92 11.79 1175.66 12.414 1175.13 12.942C1174.6 13.47 1173.97 13.734 1173.24 13.734H1173.11L1175.92 17.046V18H1173.04L1169.46 13.734L1165.75 13.752V18H1162.96ZM1166.35 10.926H1172.5C1172.9 10.926 1173.1 10.926 1173.1 10.926C1173.1 10.926 1173.1 10.728 1173.1 10.332V8.442C1173.1 8.046 1173.1 7.848 1173.1 7.848C1173.1 7.848 1172.9 7.848 1172.5 7.848H1166.35C1165.95 7.848 1165.75 7.848 1165.75 7.848C1165.75 7.848 1165.75 8.046 1165.75 8.442V10.332C1165.75 10.728 1165.75 10.926 1165.75 10.926C1165.75 10.926 1165.95 10.926 1166.35 10.926ZM1177.83 18V5.04H1180.71L1187.97 13.68V5.04H1190.79V18H1187.91L1180.62 9.324V18H1177.83ZM1201.26 18C1200.54 18 1199.92 17.712 1199.4 17.136C1198.89 16.56 1198.63 15.918 1198.63 15.21V7.722C1198.63 7.002 1198.89 6.378 1199.4 5.85C1199.92 5.31 1200.54 5.04 1201.26 5.04H1208.73C1209.45 5.04 1210.06 5.31 1210.58 5.85C1211.1 6.378 1211.35 7.002 1211.35 7.722V15.21C1211.35 15.918 1211.1 16.56 1210.58 17.136C1210.06 17.712 1209.45 18 1208.73 18H1201.26ZM1202.86 15.066H1208.01C1208.4 15.066 1208.6 15.066 1208.6 15.066C1208.6 15.066 1208.6 14.868 1208.6 14.472V10.242L1202.86 15.066ZM1201.38 12.69L1207.12 7.866H1201.98C1201.58 7.866 1201.38 7.866 1201.38 7.866C1201.38 7.866 1201.38 8.064 1201.38 8.46V12.69ZM1213.59 18V15.246H1216.34V18H1213.59ZM1220.47 18C1219.75 18 1219.13 17.742 1218.62 17.226C1218.1 16.71 1217.84 16.098 1217.84 15.39V14.382H1220.6V14.652C1220.6 15.048 1220.6 15.246 1220.6 15.246C1220.6 15.246 1220.79 15.246 1221.19 15.246H1227.22C1227.62 15.246 1227.81 15.246 1227.81 15.246C1227.81 15.246 1227.81 15.048 1227.81 14.652V13.41C1227.81 13.014 1227.81 12.816 1227.81 12.816C1227.81 12.816 1227.62 12.816 1227.22 12.816H1217.84V5.04H1230.57V7.794H1221.19C1220.79 7.794 1220.6 7.794 1220.6 7.794C1220.6 7.794 1220.6 7.992 1220.6 8.388V9.45C1220.6 9.846 1220.6 10.044 1220.6 10.044C1220.6 10.044 1220.79 10.044 1221.19 10.044H1227.94C1228.66 10.044 1229.28 10.302 1229.79 10.818C1230.31 11.322 1230.57 11.934 1230.57 12.654V15.39C1230.57 16.098 1230.31 16.71 1229.79 17.226C1229.28 17.742 1228.66 18 1227.94 18H1220.47ZM1234.17 18V15.174L1245.98 5.058H1246.89V7.866L1235.09 18H1234.17ZM1235.07 11.358C1234.35 11.358 1233.76 11.13 1233.3 10.674C1232.85 10.218 1232.62 9.63 1232.62 8.91V7.614C1232.62 6.894 1232.85 6.312 1233.3 5.868C1233.76 5.412 1234.35 5.184 1235.07 5.184H1236.53C1237.25 5.184 1237.83 5.412 1238.29 5.868C1238.75 6.312 1238.97 6.894 1238.97 7.614V8.91C1238.97 9.63 1238.75 10.218 1238.29 10.674C1237.83 11.13 1237.25 11.358 1236.53 11.358H1235.07ZM1235.46 9.09H1236.11C1236.28 9.09 1236.42 9.036 1236.53 8.928C1236.65 8.808 1236.71 8.664 1236.71 8.496V8.028C1236.71 7.86 1236.65 7.722 1236.53 7.614C1236.42 7.494 1236.28 7.434 1236.11 7.434H1235.46C1235.3 7.434 1235.15 7.494 1235.03 7.614C1234.92 7.722 1234.87 7.86 1234.87 8.028V8.496C1234.87 8.664 1234.92 8.808 1235.03 8.928C1235.15 9.036 1235.3 9.09 1235.46 9.09ZM1244.21 17.838C1243.5 17.838 1242.92 17.61 1242.47 17.154C1242.01 16.698 1241.78 16.11 1241.78 15.39V14.094C1241.78 13.374 1242.01 12.792 1242.47 12.348C1242.92 11.892 1243.5 11.664 1244.21 11.664H1245.67C1246.39 11.664 1246.98 11.892 1247.43 12.348C1247.89 12.792 1248.12 13.374 1248.12 14.094V15.39C1248.12 16.11 1247.89 16.698 1247.43 17.154C1246.98 17.61 1246.39 17.838 1245.67 17.838H1244.21ZM1244.63 15.588H1245.27C1245.44 15.588 1245.58 15.534 1245.69 15.426C1245.81 15.306 1245.87 15.162 1245.87 14.994V14.508C1245.87 14.34 1245.81 14.202 1245.69 14.094C1245.58 13.974 1245.44 13.914 1245.27 13.914H1244.63C1244.46 13.914 1244.31 13.974 1244.19 14.094C1244.09 14.202 1244.03 14.34 1244.03 14.508V14.994C1244.03 15.162 1244.09 15.306 1244.19 15.426C1244.31 15.534 1244.46 15.588 1244.63 15.588ZM1258.58 18C1257.85 18 1257.22 17.742 1256.69 17.226C1256.17 16.698 1255.91 16.068 1255.91 15.336V7.704C1255.91 6.972 1256.17 6.348 1256.69 5.832C1257.22 5.304 1257.85 5.04 1258.58 5.04H1266.21C1266.93 5.04 1267.55 5.304 1268.08 5.832C1268.61 6.348 1268.87 6.972 1268.87 7.704V15.336C1268.87 16.068 1268.61 16.698 1268.08 17.226C1267.55 17.742 1266.93 18 1266.21 18H1258.58ZM1259.3 15.192H1265.45C1265.85 15.192 1266.05 15.192 1266.05 15.192C1266.05 15.192 1266.05 14.994 1266.05 14.598V8.442C1266.05 8.046 1266.05 7.848 1266.05 7.848C1266.05 7.848 1265.85 7.848 1265.45 7.848H1259.3C1258.9 7.848 1258.7 7.848 1258.7 7.848C1258.7 7.848 1258.7 8.046 1258.7 8.442V14.598C1258.7 14.994 1258.7 15.192 1258.7 15.192C1258.7 15.192 1258.9 15.192 1259.3 15.192ZM1270.89 18V5.04H1282.86V7.848H1273.72V10.116H1281.08V12.924H1273.72V18H1270.89ZM1086.89 41V30.848H1081.82V28.04H1094.78V30.848H1089.7V41H1086.89ZM1096.16 41V30.704C1096.16 29.972 1096.42 29.348 1096.93 28.832C1097.46 28.304 1098.09 28.04 1098.82 28.04H1106.44C1107.17 28.04 1107.8 28.304 1108.33 28.832C1108.85 29.348 1109.12 29.972 1109.12 30.704V41H1106.29V36.824H1098.95V41H1096.16ZM1098.95 34.016H1106.29V31.442C1106.29 31.046 1106.29 30.848 1106.29 30.848C1106.29 30.848 1106.09 30.848 1105.7 30.848H1099.54C1099.15 30.848 1098.95 30.848 1098.95 30.848C1098.95 30.848 1098.95 31.046 1098.95 31.442V34.016ZM1111.19 41V28.04H1113.99V33.116H1116.53L1120.78 28.04H1123.7V29.012L1119.07 34.52L1123.7 40.028V41H1120.78L1116.53 35.924H1113.99V41H1111.19ZM1125.55 41V28.04H1137.52V30.848H1128.37V33.116H1135.74V35.924H1128.37V38.192H1137.52V41H1125.55ZM1145.08 41V28.058H1155.35C1156.09 28.058 1156.72 28.322 1157.24 28.85C1157.77 29.378 1158.04 30.002 1158.04 30.722V34.07C1158.04 34.79 1157.77 35.414 1157.24 35.942C1156.72 36.47 1156.09 36.734 1155.35 36.734H1155.23L1158.04 40.046V41H1155.16L1151.57 36.734L1147.87 36.752V41H1145.08ZM1148.46 33.926H1154.62C1155.01 33.926 1155.21 33.926 1155.21 33.926C1155.21 33.926 1155.21 33.728 1155.21 33.332V31.442C1155.21 31.046 1155.21 30.848 1155.21 30.848C1155.21 30.848 1155.01 30.848 1154.62 30.848H1148.46C1148.06 30.848 1147.87 30.848 1147.87 30.848C1147.87 30.848 1147.87 31.046 1147.87 31.442V33.332C1147.87 33.728 1147.87 33.926 1147.87 33.926C1147.87 33.926 1148.06 33.926 1148.46 33.926ZM1159.98 41V30.704C1159.98 29.972 1160.24 29.348 1160.76 28.832C1161.29 28.304 1161.92 28.04 1162.65 28.04H1170.26C1170.99 28.04 1171.62 28.304 1172.15 28.832C1172.68 29.348 1172.94 29.972 1172.94 30.704V41H1170.12V36.824H1162.77V41H1159.98ZM1162.77 34.016H1170.12V31.442C1170.12 31.046 1170.12 30.848 1170.12 30.848C1170.12 30.848 1169.92 30.848 1169.52 30.848H1163.37C1162.97 30.848 1162.77 30.848 1162.77 30.848C1162.77 30.848 1162.77 31.046 1162.77 31.442V34.016ZM1179.42 41V30.848H1174.35V28.04H1187.31V30.848H1182.23V41H1179.42ZM1188.69 41V28.04H1200.66V30.848H1191.51V33.116H1198.88V35.924H1191.51V38.192H1200.66V41H1188.69ZM1208.27 41V28.04H1220.24V30.848H1211.1V33.116H1218.46V35.924H1211.1V41H1208.27ZM1221.22 41V28.058H1231.5C1232.23 28.058 1232.86 28.322 1233.39 28.85C1233.92 29.378 1234.18 30.002 1234.18 30.722V34.07C1234.18 34.79 1233.92 35.414 1233.39 35.942C1232.86 36.47 1232.23 36.734 1231.5 36.734H1231.38L1234.18 40.046V41H1231.3L1227.72 36.734L1224.01 36.752V41H1221.22ZM1224.61 33.926H1230.76C1231.16 33.926 1231.36 33.926 1231.36 33.926C1231.36 33.926 1231.36 33.728 1231.36 33.332V31.442C1231.36 31.046 1231.36 30.848 1231.36 30.848C1231.36 30.848 1231.16 30.848 1230.76 30.848H1224.61C1224.21 30.848 1224.01 30.848 1224.01 30.848C1224.01 30.848 1224.01 31.046 1224.01 31.442V33.332C1224.01 33.728 1224.01 33.926 1224.01 33.926C1224.01 33.926 1224.21 33.926 1224.61 33.926ZM1238.72 41C1237.99 41 1237.36 40.742 1236.83 40.226C1236.32 39.698 1236.06 39.068 1236.06 38.336V30.704C1236.06 29.972 1236.32 29.348 1236.83 28.832C1237.36 28.304 1237.99 28.04 1238.72 28.04H1246.36C1247.08 28.04 1247.7 28.304 1248.23 28.832C1248.76 29.348 1249.02 29.972 1249.02 30.704V38.336C1249.02 39.068 1248.76 39.698 1248.23 40.226C1247.7 40.742 1247.08 41 1246.36 41H1238.72ZM1239.44 38.192H1245.6C1246 38.192 1246.19 38.192 1246.19 38.192C1246.19 38.192 1246.19 37.994 1246.19 37.598V31.442C1246.19 31.046 1246.19 30.848 1246.19 30.848C1246.19 30.848 1246 30.848 1245.6 30.848H1239.44C1239.05 30.848 1238.85 30.848 1238.85 30.848C1238.85 30.848 1238.85 31.046 1238.85 31.442V37.598C1238.85 37.994 1238.85 38.192 1238.85 38.192C1238.85 38.192 1239.05 38.192 1239.44 38.192ZM1251 41V28.04H1253.88L1258.27 33.278L1262.65 28.04H1265.55V41H1262.74V32.306L1258.27 37.634L1253.79 32.324V41H1251ZM1276.13 41C1275.4 41 1274.77 40.742 1274.24 40.226C1273.72 39.698 1273.47 39.068 1273.47 38.336V37.13H1276.26V37.598C1276.26 37.994 1276.26 38.192 1276.26 38.192C1276.26 38.192 1276.45 38.192 1276.85 38.192H1283.01C1283.4 38.192 1283.6 38.192 1283.6 38.192C1283.6 38.192 1283.6 37.994 1283.6 37.598V36.518C1283.6 36.122 1283.6 35.924 1283.6 35.924C1283.6 35.924 1283.4 35.924 1283.01 35.924H1276.13C1275.4 35.924 1274.77 35.666 1274.24 35.15C1273.72 34.622 1273.47 33.992 1273.47 33.26V30.704C1273.47 29.972 1273.72 29.348 1274.24 28.832C1274.77 28.304 1275.4 28.04 1276.13 28.04H1283.76C1284.48 28.04 1285.11 28.304 1285.63 28.832C1286.16 29.348 1286.43 29.972 1286.43 30.704V31.91H1283.6V31.442C1283.6 31.046 1283.6 30.848 1283.6 30.848C1283.6 30.848 1283.4 30.848 1283.01 30.848H1276.85C1276.45 30.848 1276.26 30.848 1276.26 30.848C1276.26 30.848 1276.26 31.046 1276.26 31.442V32.522C1276.26 32.918 1276.26 33.116 1276.26 33.116C1276.26 33.116 1276.45 33.116 1276.85 33.116H1283.76C1284.48 33.116 1285.11 33.38 1285.63 33.908C1286.16 34.424 1286.43 35.048 1286.43 35.78V38.336C1286.43 39.068 1286.16 39.698 1285.63 40.226C1285.11 40.742 1284.48 41 1283.76 41H1276.13ZM1291.07 41C1290.34 41 1289.71 40.742 1289.18 40.226C1288.67 39.698 1288.41 39.068 1288.41 38.336V30.704C1288.41 29.972 1288.67 29.348 1289.18 28.832C1289.71 28.304 1290.34 28.04 1291.07 28.04H1298.69C1299.42 28.04 1300.05 28.304 1300.58 28.832C1301.1 29.348 1301.37 29.972 1301.37 30.704V31.928H1298.54V31.442C1298.54 31.046 1298.54 30.848 1298.54 30.848C1298.54 30.848 1298.34 30.848 1297.95 30.848H1291.79C1291.4 30.848 1291.2 30.848 1291.2 30.848C1291.2 30.848 1291.2 31.046 1291.2 31.442V37.598C1291.2 37.994 1291.2 38.192 1291.2 38.192C1291.2 38.192 1291.4 38.192 1291.79 38.192H1297.95C1298.34 38.192 1298.54 38.192 1298.54 38.192C1298.54 38.192 1298.54 37.994 1298.54 37.598V36.248H1295.73V33.44H1301.37V38.336C1301.37 39.068 1301.1 39.698 1300.58 40.226C1300.05 40.742 1299.42 41 1298.69 41H1291.07ZM1303.39 41V28.04H1315.36V30.848H1306.21V33.116H1313.57V35.924H1306.21V41H1303.39ZM1316.32 33.224V28.292H1319.08V30.542C1319.08 31.19 1318.81 31.766 1318.28 32.27C1317.76 32.774 1317.1 33.092 1316.32 33.224ZM1323.27 41C1322.54 41 1321.91 40.742 1321.38 40.226C1320.87 39.698 1320.61 39.068 1320.61 38.336V37.13H1323.4V37.598C1323.4 37.994 1323.4 38.192 1323.4 38.192C1323.4 38.192 1323.6 38.192 1323.99 38.192H1330.15C1330.55 38.192 1330.74 38.192 1330.74 38.192C1330.74 38.192 1330.74 37.994 1330.74 37.598V36.518C1330.74 36.122 1330.74 35.924 1330.74 35.924C1330.74 35.924 1330.55 35.924 1330.15 35.924H1323.27C1322.54 35.924 1321.91 35.666 1321.38 35.15C1320.87 34.622 1320.61 33.992 1320.61 33.26V30.704C1320.61 29.972 1320.87 29.348 1321.38 28.832C1321.91 28.304 1322.54 28.04 1323.27 28.04H1330.91C1331.63 28.04 1332.25 28.304 1332.78 28.832C1333.31 29.348 1333.57 29.972 1333.57 30.704V31.91H1330.74V31.442C1330.74 31.046 1330.74 30.848 1330.74 30.848C1330.74 30.848 1330.55 30.848 1330.15 30.848H1323.99C1323.6 30.848 1323.4 30.848 1323.4 30.848C1323.4 30.848 1323.4 31.046 1323.4 31.442V32.522C1323.4 32.918 1323.4 33.116 1323.4 33.116C1323.4 33.116 1323.6 33.116 1323.99 33.116H1330.91C1331.63 33.116 1332.25 33.38 1332.78 33.908C1333.31 34.424 1333.57 35.048 1333.57 35.78V38.336C1333.57 39.068 1333.31 39.698 1332.78 40.226C1332.25 40.742 1331.63 41 1330.91 41H1323.27ZM1123.25 64V51.04H1135.22V53.848H1126.07V56.116H1133.43V58.924H1126.07V64H1123.25ZM1136.23 64V51.022H1139.02V61.192H1149.19V64H1136.23ZM1150.28 64V53.704C1150.28 52.972 1150.54 52.348 1151.05 51.832C1151.58 51.304 1152.21 51.04 1152.94 51.04H1160.56C1161.29 51.04 1161.92 51.304 1162.45 51.832C1162.98 52.348 1163.24 52.972 1163.24 53.704V64H1160.41V59.824H1153.07V64H1150.28ZM1153.07 57.016H1160.41V54.442C1160.41 54.046 1160.41 53.848 1160.41 53.848C1160.41 53.848 1160.22 53.848 1159.82 53.848H1153.66C1153.27 53.848 1153.07 53.848 1153.07 53.848C1153.07 53.848 1153.07 54.046 1153.07 54.442V57.016ZM1167.96 64C1167.22 64 1166.59 63.742 1166.07 63.226C1165.55 62.698 1165.29 62.068 1165.29 61.336V53.704C1165.29 52.972 1165.55 52.348 1166.07 51.832C1166.59 51.304 1167.22 51.04 1167.96 51.04H1175.57C1176.3 51.04 1176.93 51.304 1177.46 51.832C1177.99 52.348 1178.25 52.972 1178.25 53.704V54.928H1175.43V54.442C1175.43 54.046 1175.43 53.848 1175.43 53.848C1175.43 53.848 1175.23 53.848 1174.83 53.848H1168.68C1168.28 53.848 1168.08 53.848 1168.08 53.848C1168.08 53.848 1168.08 54.046 1168.08 54.442V60.598C1168.08 60.994 1168.08 61.192 1168.08 61.192C1168.08 61.192 1168.28 61.192 1168.68 61.192H1174.83C1175.23 61.192 1175.43 61.192 1175.43 61.192C1175.43 61.192 1175.43 60.994 1175.43 60.598V59.248H1172.62V56.44H1178.25V61.336C1178.25 62.068 1177.99 62.698 1177.46 63.226C1176.93 63.742 1176.3 64 1175.57 64H1167.96ZM1182.86 64C1182.13 64 1181.5 63.742 1180.97 63.226C1180.45 62.698 1180.2 62.068 1180.2 61.336V60.13H1182.99V60.598C1182.99 60.994 1182.99 61.192 1182.99 61.192C1182.99 61.192 1183.18 61.192 1183.58 61.192H1189.74C1190.13 61.192 1190.33 61.192 1190.33 61.192C1190.33 61.192 1190.33 60.994 1190.33 60.598V59.518C1190.33 59.122 1190.33 58.924 1190.33 58.924C1190.33 58.924 1190.13 58.924 1189.74 58.924H1182.86C1182.13 58.924 1181.5 58.666 1180.97 58.15C1180.45 57.622 1180.2 56.992 1180.2 56.26V53.704C1180.2 52.972 1180.45 52.348 1180.97 51.832C1181.5 51.304 1182.13 51.04 1182.86 51.04H1190.49C1191.21 51.04 1191.84 51.304 1192.36 51.832C1192.89 52.348 1193.16 52.972 1193.16 53.704V54.91H1190.33V54.442C1190.33 54.046 1190.33 53.848 1190.33 53.848C1190.33 53.848 1190.13 53.848 1189.74 53.848H1183.58C1183.18 53.848 1182.99 53.848 1182.99 53.848C1182.99 53.848 1182.99 54.046 1182.99 54.442V55.522C1182.99 55.918 1182.99 56.116 1182.99 56.116C1182.99 56.116 1183.18 56.116 1183.58 56.116H1190.49C1191.21 56.116 1191.84 56.38 1192.36 56.908C1192.89 57.424 1193.16 58.048 1193.16 58.78V61.336C1193.16 62.068 1192.89 62.698 1192.36 63.226C1191.84 63.742 1191.21 64 1190.49 64H1182.86ZM1195.16 64V51.04H1197.95V56.116H1205.6V51.04H1208.39V64H1205.6V58.924H1197.95V64H1195.16ZM1210.38 64V51.04H1213.13V64H1210.38ZM1214.3 64V51.058H1224.58C1225.31 51.058 1225.94 51.322 1226.47 51.85C1227 52.378 1227.26 53.002 1227.26 53.722V57.07C1227.26 57.79 1227 58.414 1226.47 58.942C1225.94 59.47 1225.31 59.734 1224.58 59.734L1217.09 59.752V64H1214.3ZM1217.68 56.926H1223.84C1224.24 56.926 1224.43 56.926 1224.43 56.926C1224.43 56.926 1224.43 56.728 1224.43 56.332V54.442C1224.43 54.046 1224.43 53.848 1224.43 53.848C1224.43 53.848 1224.24 53.848 1223.84 53.848H1217.68C1217.29 53.848 1217.09 53.848 1217.09 53.848C1217.09 53.848 1217.09 54.046 1217.09 54.442V56.332C1217.09 56.728 1217.09 56.926 1217.09 56.926C1217.09 56.926 1217.29 56.926 1217.68 56.926ZM1237 64C1236.27 64 1235.64 63.742 1235.11 63.226C1234.6 62.698 1234.34 62.068 1234.34 61.336V53.704C1234.34 52.972 1234.6 52.348 1235.11 51.832C1235.64 51.304 1236.27 51.04 1237 51.04H1244.62C1245.35 51.04 1245.98 51.304 1246.51 51.832C1247.03 52.348 1247.3 52.972 1247.3 53.704V54.928H1244.47V54.442C1244.47 54.046 1244.47 53.848 1244.47 53.848C1244.47 53.848 1244.27 53.848 1243.88 53.848H1237.72C1237.33 53.848 1237.13 53.848 1237.13 53.848C1237.13 53.848 1237.13 54.046 1237.13 54.442V60.598C1237.13 60.994 1237.13 61.192 1237.13 61.192C1237.13 61.192 1237.33 61.192 1237.72 61.192H1243.88C1244.27 61.192 1244.47 61.192 1244.47 61.192C1244.47 61.192 1244.47 60.994 1244.47 60.598V59.248H1241.66V56.44H1247.3V61.336C1247.3 62.068 1247.03 62.698 1246.51 63.226C1245.98 63.742 1245.35 64 1244.62 64H1237ZM1249.32 64V53.704C1249.32 52.972 1249.57 52.348 1250.09 51.832C1250.62 51.304 1251.25 51.04 1251.98 51.04H1259.59C1260.33 51.04 1260.96 51.304 1261.48 51.832C1262.01 52.348 1262.28 52.972 1262.28 53.704V64H1259.45V59.824H1252.11V64H1249.32ZM1252.11 57.016H1259.45V54.442C1259.45 54.046 1259.45 53.848 1259.45 53.848C1259.45 53.848 1259.25 53.848 1258.86 53.848H1252.7C1252.3 53.848 1252.11 53.848 1252.11 53.848C1252.11 53.848 1252.11 54.046 1252.11 54.442V57.016ZM1264.33 64V51.04H1267.21L1271.6 56.278L1275.97 51.04H1278.87V64H1276.06V55.306L1271.6 60.634L1267.12 55.324V64H1264.33ZM1281.06 64V51.04H1293.03V53.848H1283.89V56.116H1291.25V58.924H1283.89V61.192H1293.03V64H1281.06Z" fill="white"/>
<path d="M294.5 314C294.5 314.828 295.172 315.5 296 315.5C296.828 315.5 297.5 314.828 297.5 314L294.5 314ZM297.061 292.939C296.475 292.354 295.525 292.354 294.939 292.939L285.393 302.485C284.808 303.071 284.808 304.021 285.393 304.607C285.979 305.192 286.929 305.192 287.515 304.607L296 296.121L304.485 304.607C305.071 305.192 306.021 305.192 306.607 304.607C307.192 304.021 307.192 303.071 306.607 302.485L297.061 292.939ZM297.5 314L297.5 294L294.5 294L294.5 314L297.5 314Z" fill="white"/>
<path d="M598.5 276C598.5 276.828 599.172 277.5 600 277.5C600.828 277.5 601.5 276.828 601.5 276L598.5 276ZM601.061 254.939C600.475 254.354 599.525 254.354 598.939 254.939L589.393 264.485C588.808 265.071 588.808 266.021 589.393 266.607C589.979 267.192 590.929 267.192 591.515 266.607L600 258.121L608.485 266.607C609.071 267.192 610.021 267.192 610.607 266.607C611.192 266.021 611.192 265.071 610.607 264.485L601.061 254.939ZM601.5 276L601.5 256L598.5 256L598.5 276L601.5 276Z" fill="white"/>
<path d="M902.5 208C902.5 208.828 903.172 209.5 904 209.5C904.828 209.5 905.5 208.828 905.5 208L902.5 208ZM905.061 186.939C904.475 186.354 903.525 186.354 902.939 186.939L893.393 196.485C892.808 197.071 892.808 198.021 893.393 198.607C893.979 199.192 894.929 199.192 895.515 198.607L904 190.121L912.485 198.607C913.071 199.192 914.021 199.192 914.607 198.607C915.192 198.021 915.192 197.071 914.607 196.485L905.061 186.939ZM905.5 208L905.5 188L902.5 188L902.5 208L905.5 208Z" fill="white"/>
<path d="M1206.5 109C1206.5 109.828 1207.17 110.5 1208 110.5C1208.83 110.5 1209.5 109.828 1209.5 109L1206.5 109ZM1209.06 87.9393C1208.47 87.3536 1207.53 87.3536 1206.94 87.9393L1197.39 97.4853C1196.81 98.0711 1196.81 99.0208 1197.39 99.6066C1197.98 100.192 1198.93 100.192 1199.51 99.6066L1208 91.1213L1216.49 99.6066C1217.07 100.192 1218.02 100.192 1218.61 99.6066C1219.19 99.0208 1219.19 98.0711 1218.61 97.4853L1209.06 87.9393ZM1209.5 109L1209.5 89L1206.5 89L1206.5 109L1209.5 109Z" fill="white"/>
<defs>
<filter id="filter0_d" x="-40.7617" y="11.9835" width="1539.92" height="480.616" filterUnits="userSpaceOnUse" color-interpolation-filters="sRGB">
<feFlood flood-opacity="0" result="BackgroundImageFix"/>
<feColorMatrix in="SourceAlpha" type="matrix" values="0 0 0 0 0 0 0 0 0 0 0 0 0 0 0 0 0 0 127 0" result="hardAlpha"/>
<feOffset dy="15"/>
<feGaussianBlur stdDeviation="20"/>
<feComposite in2="hardAlpha" operator="out"/>
<feColorMatrix type="matrix" values="0 0 0 0 0.0196078 0 0 0 0 0.843137 0 0 0 0 0.909804 0 0 0 1 0"/>
<feBlend mode="normal" in2="BackgroundImageFix" result="effect1_dropShadow"/>
<feBlend mode="normal" in="SourceGraphic" in2="effect1_dropShadow" result="shape"/>
</filter>
</defs>
</svg>
