<svg width="72" height="72" viewBox="0 0 72 72" fill="none" xmlns="http://www.w3.org/2000/svg">
<circle cx="36" cy="36" r="35.5" fill="#EFEEEE" fill-opacity="0.05" stroke="#EFEEEE"/>
<path d="M35.8434 32.2603C33.4593 32.2603 31.5137 34.2059 31.5137 36.5901C31.5137 38.9742 33.4593 40.9198 35.8434 40.9198C38.2275 40.9198 40.1731 38.9742 40.1731 36.5901C40.1731 34.2059 38.2275 32.2603 35.8434 32.2603ZM48.8293 36.5901C48.8293 34.7971 48.8456 33.0204 48.7449 31.2307C48.6442 29.1519 48.17 27.307 46.6498 25.7869C45.1265 24.2635 43.2848 23.7926 41.206 23.6919C39.4131 23.5912 37.6364 23.6074 35.8467 23.6074C34.0537 23.6074 32.277 23.5912 30.4873 23.6919C28.4085 23.7926 26.5636 24.2668 25.0435 25.7869C23.5201 27.3102 23.0492 29.1519 22.9485 31.2307C22.8478 33.0236 22.864 34.8004 22.864 36.5901C22.864 38.3798 22.8478 40.1597 22.9485 41.9494C23.0492 44.0282 23.5234 45.8731 25.0435 47.3932C26.5669 48.9166 28.4085 49.3876 30.4873 49.4882C32.2803 49.5889 34.057 49.5727 35.8467 49.5727C37.6396 49.5727 39.4163 49.5889 41.206 49.4882C43.2848 49.3876 45.1297 48.9133 46.6498 47.3932C48.1732 45.8699 48.6442 44.0282 48.7449 41.9494C48.8488 40.1597 48.8293 38.383 48.8293 36.5901ZM35.8434 43.2519C32.1568 43.2519 29.1816 40.2766 29.1816 36.5901C29.1816 32.9035 32.1568 29.9282 35.8434 29.9282C39.53 29.9282 42.5053 32.9035 42.5053 36.5901C42.5053 40.2766 39.53 43.2519 35.8434 43.2519ZM42.7781 31.2112C41.9174 31.2112 41.2223 30.5161 41.2223 29.6554C41.2223 28.7946 41.9174 28.0995 42.7781 28.0995C43.6389 28.0995 44.334 28.7946 44.334 29.6554C44.3342 29.8598 44.2941 30.0622 44.216 30.2511C44.1379 30.4399 44.0234 30.6116 43.8788 30.7561C43.7343 30.9006 43.5627 31.0152 43.3738 31.0933C43.1849 31.1714 42.9825 31.2115 42.7781 31.2112Z" fill="#EFEEEE"/>
</svg>
