<svg width="131" height="48" viewBox="0 0 131 48" fill="none" xmlns="http://www.w3.org/2000/svg">
<path d="M0 24V0H65.3278H130.656V24V48H65.3278H0V24ZM34.2075 42.2977C34.5742 42.1994 34.6556 42.0378 34.6556 41.408C34.6556 40.5991 34.5664 40.5339 33.2614 40.3877C32.8533 40.342 32.7635 40.2241 32.7635 39.7344C32.7635 39.1738 32.8188 39.1308 33.6597 39.0373L34.556 38.9378L34.6186 38.0642C34.694 37.0107 34.5208 36.8088 33.4147 36.6612C32.842 36.5848 32.5643 36.4502 32.5643 36.249C32.5643 36.0298 32.8374 35.9344 33.5888 35.8907C34.5625 35.8342 34.6177 35.8011 34.7025 35.2231C34.9465 33.5609 34.6337 33.4039 31.2697 33.5002L29.1784 33.5602L29.1248 37.8785L29.0711 42.1969L29.6227 42.2802C30.5188 42.4156 33.7219 42.4278 34.2075 42.2977V42.2977ZM37.9917 42.2977C38.3887 42.1913 38.4402 42.0495 38.4429 41.0556C38.4484 39.0197 39.0319 39.0307 39.3381 41.0724C39.4156 41.5892 39.5956 42.1089 39.7382 42.2272C39.8854 42.3494 40.5857 42.4166 41.3597 42.3829L42.722 42.3237L42.7814 41.1893C42.8352 40.1612 42.7933 40.0238 42.3333 39.7224C41.7094 39.3137 41.6884 38.9137 42.266 38.4459C42.6285 38.1524 42.7205 37.8368 42.7871 36.659C42.86 35.3695 42.8215 35.1788 42.3966 34.724C42.1374 34.4465 41.6822 34.093 41.3852 33.9384C40.7001 33.5819 36.7394 33.3491 36.0332 33.6237L35.5187 33.8238L35.566 37.8746C35.592 40.1025 35.6218 41.9874 35.6324 42.0632C35.6429 42.1391 36.0324 42.2355 36.4979 42.2774C36.9635 42.3193 37.3892 42.3681 37.444 42.3857C37.4988 42.4034 37.7452 42.3638 37.9917 42.2977ZM38.5257 36.2267C38.3755 35.9838 38.8228 35.6185 39.0776 35.7759C39.165 35.8299 39.2365 36.0033 39.2365 36.1611C39.2365 36.4991 38.7233 36.5465 38.5257 36.2267ZM72.7658 42.2358L73.2588 42.0484L73.1628 38.0034C73.11 35.7787 73.0313 33.8465 72.9878 33.7095C72.9053 33.4497 71.5537 33.372 70.7704 33.5821C70.3928 33.6834 70.3197 33.8868 70.1992 35.1728C70.1233 35.9838 69.9838 36.6473 69.8893 36.6473C69.7949 36.6473 69.4541 36.1768 69.1321 35.6017C68.0248 33.6239 68.0748 33.6598 66.4257 33.6598C65.6157 33.6598 64.9012 33.7436 64.8379 33.846C64.7746 33.9484 64.7173 35.6953 64.7105 37.7279C64.7038 39.7678 64.6156 41.4747 64.5137 41.5377C64.2937 41.6737 64.2853 41.6485 63.7437 39.2365C62.7051 34.6118 62.4758 33.8389 62.0796 33.6268C61.5782 33.3585 58.0469 33.6058 57.799 33.9266C57.7008 34.0537 57.1949 35.4796 56.6748 37.0953C55.8304 39.7185 55.3693 40.5432 55.3693 39.4299C55.3693 39.2206 55.1004 38.8505 54.7718 38.6075C54.4431 38.3646 54.1743 37.9959 54.1743 37.7884C54.1743 37.5808 54.5328 36.6872 54.971 35.8025C55.4091 34.9179 55.7676 34.0863 55.7676 33.9546C55.7676 33.7104 53.5531 33.4057 53.0846 33.5855C52.9527 33.6361 52.5897 34.2113 52.2779 34.8637C51.9661 35.516 51.6423 36.0498 51.5584 36.0498C51.4744 36.0498 51.3789 35.5344 51.346 34.9046L51.2863 33.7593H49.7925H48.2988L48.2542 37.5436C48.2297 39.6249 48.2548 41.5333 48.3099 41.7845C48.4048 42.2163 48.4889 42.2381 49.8483 42.1829L51.2863 42.1245L51.3859 40.7303C51.4595 39.6993 51.5598 39.3361 51.7708 39.3361C51.9514 39.3361 52.2095 39.8476 52.4742 40.7303L52.8924 42.1245L55.4867 42.1798L58.081 42.2351L58.3683 41.5823C58.6378 40.97 58.7174 40.9295 59.6514 40.9295C60.6031 40.9295 60.6558 40.9582 60.8379 41.5768L61.0284 42.2241H64.3731H67.7178V40.8416C67.7178 40.0813 67.7965 39.4106 67.8926 39.3512C67.9887 39.2918 68.4582 39.9098 68.9358 40.7245C69.8743 42.3253 69.684 42.2162 71.8377 42.3884C72.077 42.4076 72.4947 42.3389 72.7658 42.2358ZM59.2741 38.4737C59.124 38.2308 59.536 37.0456 59.7705 37.0456C59.8693 37.0456 59.9636 37.2697 59.9801 37.5436C59.9965 37.8174 60.0189 38.1523 60.0299 38.2877C60.054 38.5855 59.437 38.7374 59.2741 38.4737ZM12.4198 41.3232L13.1728 40.4222L13.2875 37.1889C13.4231 33.3633 13.4451 33.4093 11.5195 33.5004L10.2573 33.5602L10.1151 36.1494C10.0369 37.5734 9.88197 38.9403 9.77081 39.1867C9.48611 39.818 9.02898 39.7433 8.64615 39.003C8.35881 38.4474 8.34576 38.0944 8.53785 36.0748C8.70875 34.2781 8.70289 33.7445 8.51092 33.6225C8.22086 33.4383 5.94724 33.4073 5.49347 33.5815C5.22342 33.6851 5.17842 34.1822 5.17842 37.0616V40.4209L6.01278 41.3225L6.84713 42.2241H9.25691H11.6667L12.4198 41.3232ZM17.0427 40.8299C17.1183 40.0631 17.2581 39.4357 17.3535 39.4357C17.4489 39.4357 17.527 39.5164 17.527 39.6151C17.527 39.7138 17.9379 40.3412 18.4401 41.0093L19.3533 42.2241H20.7093C21.762 42.2241 22.0923 42.1536 22.1862 41.909C22.4259 41.2842 22.3204 33.952 22.068 33.6996C21.7705 33.402 20.0302 33.386 19.4887 33.6758C19.1507 33.8567 19.0972 34.0521 19.1532 34.9018C19.1927 35.5004 19.1329 35.9424 19.0066 35.9859C18.8892 36.0262 18.5307 35.5543 18.2099 34.937C17.8704 34.284 17.4338 33.7407 17.1655 33.6377C16.4529 33.364 14.3417 33.416 14.25 33.7095C14.0983 34.1955 13.9381 40.9603 14.0635 41.587L14.1909 42.2241H15.5481H16.9053L17.0427 40.8299ZM27.3958 41.5443C27.4659 41.1704 27.4924 39.8107 27.4546 38.5227L27.3859 36.181L27.9664 36.0242C28.6922 35.8283 28.8728 35.5483 28.8766 34.6128C28.8788 34.0831 28.7702 33.8144 28.4944 33.6668C28.038 33.4225 23.5186 33.3931 23.142 33.6319C22.9663 33.7433 22.9015 34.147 22.9429 34.8725C23.0011 35.8938 23.0342 35.9533 23.6017 36.0523C24.1673 36.151 24.1975 36.2041 24.1674 37.0492C24.1498 37.5402 24.182 38.9054 24.2389 40.083L24.3423 42.2241H25.8053H27.2683L27.3958 41.5443ZM77.4772 41.2282C77.4772 40.6805 77.55 40.2324 77.639 40.2324C77.728 40.2324 77.9966 40.6805 78.2357 41.2282L78.6705 42.2241H80.5635H82.4564V38.0352C82.4564 33.2938 82.5653 33.5812 80.7635 33.5676L79.7676 33.5602L79.668 35.0539L79.5685 36.5477L78.9487 35.7094C78.6078 35.2483 78.2155 34.5973 78.077 34.2628C77.7782 33.5415 77.3941 33.4193 75.6785 33.4997L74.39 33.5602L74.3364 37.8921L74.2827 42.2241H75.8799H77.4772V41.2282ZM86.6404 39.2863C86.6412 37.6705 86.6993 35.7397 86.7696 34.9956L86.8974 33.6427L85.2246 33.701L83.5519 33.7593L83.4933 37.3444C83.4611 39.3162 83.4876 41.2207 83.5521 41.5768L83.6695 42.2241H85.1543H86.639L86.6404 39.2863H86.6404ZM95.0955 41.6C95.5381 41.074 95.6113 40.8165 95.5613 39.9617C95.5133 39.139 95.4168 38.9051 95.0504 38.7233C94.3367 38.3691 94.3257 38.2947 94.8883 37.6262C95.3648 37.0598 95.4135 36.859 95.3612 35.6758L95.3029 34.3568L94.4142 33.9087C93.6312 33.5139 93.2235 33.4606 90.9855 33.4606C88.6782 33.4606 88.4267 33.4959 88.2394 33.8458C88.0128 34.2692 87.9451 41.8705 88.166 42.0913C88.239 42.1643 89.7099 42.2241 91.4346 42.2241H94.5704L95.0955 41.6ZM91.304 40.1643C91.2414 40.0012 91.2193 39.6136 91.2549 39.3031C91.3018 38.8929 91.4284 38.7386 91.7178 38.7386C92.0496 38.7386 92.1162 38.8714 92.1162 39.5325C92.1162 40.1309 92.0301 40.3431 91.767 40.3937C91.575 40.4307 91.3666 40.3275 91.304 40.1643ZM91.4191 36.1757C91.4191 35.5834 91.7877 35.2859 92.0386 35.6757C92.2967 36.0767 92.1631 36.5332 91.7653 36.6098C91.5106 36.6589 91.4191 36.5442 91.4191 36.1757ZM98.6815 41.6407C99.2314 40.5772 100.782 40.5762 101.153 41.6391C101.356 42.221 101.365 42.2241 102.961 42.2241C103.961 42.2241 104.564 42.1444 104.564 42.0122C104.564 41.6998 102.789 34.5284 102.568 33.9456C102.38 33.4515 102.359 33.4476 100.259 33.5036L98.1393 33.5602L97.4584 35.8506C96.6704 38.5017 95.8008 41.7419 95.8008 42.0274C95.8008 42.1366 96.3743 42.2241 97.0903 42.2241C98.3147 42.2241 98.395 42.1946 98.6815 41.6407ZM99.7147 38.4885C99.5564 38.2323 99.8136 37.2692 100.105 37.0273C100.324 36.8457 100.387 36.8756 100.405 37.1706C100.417 37.3757 100.441 37.678 100.458 37.8423C100.513 38.3904 99.9542 38.8761 99.7147 38.4885ZM110.3 40.9793L110.36 39.834H109.461C108.776 39.834 108.513 39.7423 108.356 39.4488C108.241 39.2354 108.149 37.8097 108.149 36.2537V33.4438L106.606 33.502L105.062 33.5602L105.009 37.8979L104.955 42.2357L107.598 42.1801L110.241 42.1245L110.3 40.9793ZM115.879 42.0524C116.052 41.9428 116.12 41.5566 116.079 40.9102L116.017 39.9336L115.22 39.834C114.533 39.7481 114.423 39.667 114.423 39.2428C114.423 38.8235 114.548 38.7266 115.27 38.5838C116.113 38.417 116.116 38.4135 116.116 37.5318C116.116 36.6873 116.09 36.6473 115.535 36.6473C114.768 36.6473 114.324 36.4647 114.324 36.1494C114.324 35.8341 114.768 35.6515 115.535 35.6515C116.107 35.6515 116.116 35.6336 116.116 34.556V33.4606H113.648C110.922 33.4606 110.824 33.5087 111.039 34.7321C111.099 35.0735 111.175 36.7917 111.207 38.5506C111.239 40.3094 111.331 41.8555 111.412 41.9863C111.583 42.2626 115.457 42.32 115.879 42.0524ZM120.249 41.9173C120.412 41.8655 120.498 41.423 120.498 40.637C120.498 39.2955 120.722 39.1161 121.192 40.083C121.365 40.439 121.771 41.0216 122.095 41.3776C122.631 41.968 122.786 42.0249 123.857 42.0249C124.611 42.0249 125.111 41.9268 125.258 41.7504C125.416 41.5595 125.469 40.269 125.432 37.518L125.378 33.5602L124.033 33.5013L122.689 33.4424L122.648 34.1984C122.626 34.6142 122.598 35.268 122.586 35.6515C122.573 36.0349 122.48 36.343 122.378 36.3362C122.276 36.3294 121.903 35.9261 121.55 35.4399C120.022 33.336 120.196 33.4606 118.79 33.4606C118.086 33.4606 117.507 33.483 117.502 33.5104C117.498 33.5378 117.441 35.374 117.376 37.591C117.293 40.4257 117.324 41.7013 117.481 41.8898C117.687 42.1377 119.498 42.1557 120.249 41.9173ZM46.5653 32.6652C46.8464 32.1711 47.0316 32.0687 47.6454 32.0677C48.3657 32.0665 48.4034 32.0292 49.0055 30.722C49.3461 29.9826 49.7091 29.2432 49.8122 29.0788C49.9153 28.9145 50.1315 28.4937 50.2925 28.1437C50.4536 27.7938 50.7136 27.4353 50.8703 27.3471C51.027 27.2589 51.2799 26.6939 51.4323 26.0916C51.604 25.4128 51.8278 24.9738 52.0208 24.9366C52.5039 24.8435 53.2938 26.3916 53.8362 28.4946L54.3208 30.3734L55.2308 30.4336C55.9807 30.4832 56.1793 30.4219 56.3596 30.0851C56.6178 29.6026 57.0155 29.5589 57.361 29.9751C57.74 30.4318 58.1633 30.3402 59.3554 29.5436C60.7028 28.6432 60.7401 28.5883 60.7438 27.4999C60.747 26.5833 61.8329 23.3133 62.2193 23.057C62.3406 22.9765 62.7208 22.9093 63.0642 22.9076C63.7661 22.9042 64.1144 23.3071 64.5251 24.5975C64.6645 25.0357 64.9471 25.6738 65.153 26.0156C65.4038 26.4319 65.4885 26.8312 65.4096 27.2257C65.3129 27.7092 65.3841 27.8749 65.8078 28.1525C66.1673 28.3881 66.3236 28.6662 66.3236 29.0705C66.3236 29.3894 66.4113 29.881 66.5185 30.1628C66.7129 30.6743 66.7162 30.675 68.4604 30.544C69.4213 30.4718 70.2655 30.3239 70.3365 30.2152C70.5313 29.9167 70.341 26.9166 69.9531 24.1707C69.8134 23.1813 69.6244 22.6202 69.3325 22.3284C68.817 21.8128 68.8151 21.6707 69.3026 20.0874C69.583 19.1768 69.6476 18.6246 69.5329 18.1198C69.3493 17.3113 68.9579 16.5199 68.5996 16.2324C68.3165 16.0052 68.1771 15.086 67.9955 12.249C67.9254 11.1535 67.7784 10.1452 67.6689 10.0083C67.3927 9.66275 66.6036 9.69724 66.0188 10.0804C65.6772 10.3042 65.3181 10.362 64.8337 10.2711C64.4514 10.1994 63.7878 10.2352 63.359 10.3507L62.5794 10.5606L62.4371 12.0023C62.2733 13.6608 62.0766 14.1411 61.5609 14.1411C61.0459 14.1411 60.8372 14.4552 60.3342 15.9873C60.0922 16.7246 59.8346 17.3278 59.7617 17.3278C59.5648 17.3278 58.3064 16.3724 58.1232 16.0839C58.036 15.9465 57.9632 15.5722 57.9616 15.2522C57.96 14.9322 57.8084 14.5045 57.6249 14.3018C57.3129 13.957 57.3133 13.8872 57.6318 13.2193C57.8747 12.7099 57.9123 12.4333 57.7631 12.2534C57.648 12.1148 57.4174 11.5418 57.2506 10.98C57.0837 10.4182 56.8835 9.95495 56.8056 9.9506C56.7276 9.94626 56.171 9.90371 55.5685 9.85605C54.807 9.79582 54.1236 9.88931 53.327 10.1627C52.6967 10.379 51.6934 10.556 51.0975 10.556C49.6219 10.556 49.0652 11.0479 48.7843 12.5996C48.67 13.2305 48.4589 14.0266 48.3152 14.3685C48.1396 14.7862 48.1071 15.2265 48.2162 15.7103C48.3573 16.336 48.3101 16.5018 47.8562 16.9756C47.3789 17.4738 47.3528 17.5829 47.5542 18.239C47.9811 19.63 47.3783 20.1919 46.5615 19.1642C46.0475 18.5174 46.0019 18.3422 46.1125 17.4379C46.2321 16.4592 46.0529 15.8046 45.1728 14.0062C44.9518 13.5545 43.4502 12.9461 42.5565 12.9461C42.2876 12.9461 42.0159 12.8116 41.9529 12.6473C41.8746 12.4432 41.5553 12.3485 40.9456 12.3485C40.4061 12.3485 39.99 12.2419 39.8937 12.0789C39.5468 11.4914 38.8929 11.3598 36.9168 11.4798C35.7609 11.55 34.7676 11.7157 34.4998 11.883C34.2498 12.0392 33.8353 12.6419 33.5785 13.2224C33.3218 13.8029 32.8437 14.4688 32.5161 14.702C32.0627 15.0248 31.9425 15.2418 32.0129 15.61C32.0752 15.9358 31.9575 16.2417 31.6525 16.5466C30.9049 17.2942 30.0564 19.9916 30.066 21.5898C30.0739 22.907 29.8309 23.6211 29.4539 23.3881C29.3563 23.3278 29.3312 23.0608 29.398 22.7946C29.5793 22.0722 29.108 22.0048 27.2283 22.4843C24.6613 23.139 23.7012 22.9625 23.7012 21.8357C23.7012 21.5217 23.4999 21.1335 23.2033 20.8756C22.9295 20.6375 22.7054 20.3859 22.7054 20.3166C22.7054 20.2472 23.6566 19.2103 24.8192 18.0122C25.9818 16.8142 27.2474 15.4531 27.6316 14.9876C28.2779 14.2043 28.4022 14.1411 29.295 14.1411C30.4572 14.1411 30.7744 13.7421 30.5707 12.5363C30.4512 11.8289 30.4874 11.736 30.9673 11.5173C31.3711 11.3333 31.4663 11.1801 31.3718 10.8665C31.3038 10.641 31.1566 9.82905 31.0447 9.06224C30.6856 6.60194 30.6347 6.48033 29.9339 6.41172C29.4958 6.36884 29.1506 6.14445 28.7848 5.66484C28.2761 4.99792 27.6352 4.77506 27.3859 5.17842C27.3182 5.28797 26.9761 5.37759 26.6257 5.37759C26.2752 5.37759 25.5676 5.60166 25.0532 5.87552C24.0622 6.40305 22.9451 6.51576 22.273 6.15604C21.6937 5.84601 20.6322 6.10105 19.8844 6.72992L19.2426 7.26971L14.9734 7.29053L10.7042 7.31136L10.0824 8.02759C9.65956 8.51462 9.23751 8.77702 8.76348 8.84762C7.92304 8.9728 6.08617 9.45023 5.31968 9.74272L4.76385 9.95482L4.89456 13.0936C5.00081 15.6448 5.08583 16.2803 5.34874 16.4884C5.56941 16.6631 6.21018 16.7263 7.36511 16.6876C8.99174 16.6329 9.06828 16.6093 9.31996 16.083C9.51999 15.6647 9.72366 15.5353 10.1816 15.5353C10.5115 15.5353 10.9677 15.635 11.1954 15.7568C11.814 16.0879 13.0372 15.6149 13.6542 14.806C14.2997 13.9597 15.0414 13.9152 15.6559 14.6858C16.0706 15.2059 16.1288 15.2203 16.9411 15.0035C18.4254 14.6073 18.8022 15.2014 17.7228 16.2356C17.2666 16.6727 16.9583 16.8002 16.4423 16.7655C15.862 16.7264 15.6824 16.8296 15.2123 17.4719C14.9095 17.8856 14.56 18.3137 14.4357 18.4232C14.3114 18.5328 13.8977 19.0257 13.5164 19.5187C12.4523 20.8944 10.9454 22.3055 10.214 22.611C9.85133 22.7626 9.4957 23.04 9.42375 23.2275C9.28049 23.6008 9.89514 28.4879 10.1794 29.2355C10.3281 29.6268 10.4745 29.6906 11.1034 29.6386C11.759 29.5843 11.8586 29.5073 11.9155 29.0098C11.9705 28.5295 12.0466 28.4632 12.4134 28.5767C13.0152 28.7628 14.0949 28.8736 16.5296 28.9994C18.2483 29.0882 18.6829 29.1756 18.9772 29.4915C19.4128 29.959 20.2074 29.9908 20.5565 29.5546C21.6854 28.1436 21.7034 28.1353 23.9703 27.9808C25.876 27.8509 26.1487 27.874 26.5041 28.1957C26.8467 28.5057 26.994 28.523 27.5566 28.3196C27.9165 28.1894 28.7019 28.083 29.3021 28.083C30.5893 28.083 30.8714 27.8631 30.8714 26.8599C30.8714 26.4501 30.9549 26.0632 31.0569 26.0001C31.3535 25.8168 31.8672 26.7183 31.8672 27.4222C31.8672 27.869 32.0347 28.2222 32.4129 28.5729C32.9064 29.0305 33.1302 29.0819 34.7532 29.1104C35.7402 29.1277 36.7125 29.1274 36.914 29.1096C37.1154 29.0918 37.5403 29.2308 37.8581 29.4186C38.3101 29.6856 38.4884 29.7075 38.6769 29.519C39.1056 29.0903 39.5879 29.261 40.2267 30.0675C40.7826 30.7694 40.9225 30.8437 41.4882 30.7372C42.5877 30.5302 42.7097 30.3908 42.6495 29.411C42.6041 28.6724 42.6679 28.471 43.0045 28.2908C43.2303 28.17 43.5604 27.7825 43.7381 27.4298C43.9158 27.077 44.3314 26.5035 44.6616 26.1554C45.1261 25.6657 45.2334 25.4085 45.1357 25.0193C45.0423 24.6471 45.1264 24.406 45.4591 24.0925C46.5667 23.0485 47.0239 23.1991 46.3821 24.3965C46.1015 24.9201 46.0119 25.3512 46.0935 25.7859C46.1884 26.2917 46.113 26.5089 45.7117 26.886C45.3897 27.1885 45.2108 27.5739 45.2093 27.9683C45.2081 28.3053 44.9839 29.477 44.7113 30.5722C44.1076 32.9982 44.1073 33.0136 44.6639 33.1208C45.8698 33.3531 46.2218 33.2688 46.5653 32.6652V32.6652ZM37.5318 23.4088C37.3192 23.248 36.856 23.1136 36.5025 23.1101C36.0464 23.1056 35.7679 22.9635 35.5434 22.6209C35.2531 22.1779 35.2553 22.0588 35.57 21.1769C35.7586 20.6483 35.9661 19.8124 36.0313 19.3195L36.1497 18.4232L37.4132 18.4592C38.8786 18.5009 39.331 18.7985 39.5283 19.8504C39.6246 20.3637 39.5725 20.6516 39.3361 20.9129C39.0961 21.178 39.0473 21.4606 39.1484 21.9994C39.2608 22.5987 39.2041 22.8139 38.8277 23.2145C38.2985 23.7778 38.0658 23.8127 37.5318 23.4088ZM113.501 31.2487C114.308 31.0435 115.173 30.9271 115.424 30.99C115.675 31.0529 116.09 30.9882 116.347 30.8461C116.603 30.704 117.251 30.5395 117.787 30.4806C118.611 30.3899 118.81 30.2819 119.085 29.7759C119.264 29.4473 119.792 28.6073 120.26 27.9092C121.032 26.7551 121.084 26.6014 120.834 26.2162C120.682 25.9832 120.492 25.4371 120.411 25.0027C120.331 24.5683 120.141 23.9742 119.99 23.6823C119.701 23.1233 118.502 22.3071 117.971 22.3071C117.38 22.3071 116.312 21.4756 115.816 20.6291C114.984 19.2091 115.057 19.1203 117.065 19.1203C118.684 19.1203 118.824 19.1528 119.007 19.5685C119.216 20.0448 119.839 20.2248 120.609 20.0315C120.963 19.9426 121.108 19.7316 121.203 19.1685C121.323 18.4515 121.449 17.9813 122.185 15.4932C122.37 14.8676 122.491 14.1956 122.453 13.9998C122.368 13.5558 120.448 12.9848 118.964 12.962C118.315 12.952 117.869 12.8448 117.769 12.6746C117.563 12.3232 113.427 12.0459 112.672 12.3328C112.386 12.4416 112.011 12.8033 111.838 13.1367C111.617 13.5642 111.38 13.7427 111.032 13.7427C110.55 13.7427 109.743 14.3574 109.743 14.7245C109.743 14.982 108.263 17.1845 107.872 17.5089C107.696 17.6552 107.552 17.8863 107.552 18.0224C107.552 18.1586 107.364 18.5088 107.134 18.8007L106.717 19.3314L107.134 20.2191C107.364 20.7074 107.786 21.6939 108.074 22.4114C108.604 23.735 109.211 24.2988 110.107 24.2988C110.318 24.2988 110.602 24.4332 110.739 24.5975C110.888 24.7777 111.324 24.8963 111.836 24.8963C113.034 24.8963 113.582 25.3871 113.607 26.4833L113.627 27.3407L112.596 27.6946C111.595 28.0383 111.556 28.0375 111.221 27.6673C110.998 27.4207 110.612 27.2863 110.126 27.2863C109.083 27.2863 108.747 27.4554 108.747 27.9803C108.747 28.3884 109.252 30.9747 109.461 31.6377C109.567 31.9714 111.323 31.8022 113.501 31.2487ZM76.208 30.9361C76.6322 30.7527 77.5582 30.5382 78.2657 30.4596C79.3319 30.3411 79.6344 30.2211 80.0323 29.7585C80.4336 29.2919 80.7041 29.1865 81.6814 29.1158C82.7593 29.0379 82.8421 28.998 82.7433 28.6046C82.6844 28.37 82.7636 27.8653 82.9192 27.4832C83.0748 27.101 83.3165 26.1669 83.4563 25.4073L83.7104 24.0262L83.1703 23.6148C82.0328 22.7481 80.6741 21.4558 80.7579 21.3202C80.8061 21.2422 81.0959 21.2107 81.402 21.2501C81.7325 21.2927 82.281 21.1357 82.7526 20.8635C83.4059 20.4864 83.5692 20.2668 83.6736 19.6247C83.8099 18.786 84.5983 17.9253 85.2302 17.9253C85.5259 17.9253 85.6172 18.1519 85.7321 19.1701C85.8093 19.8548 86.0091 20.5664 86.1761 20.7515C86.4486 21.0534 86.4459 21.1902 86.1502 22.0805C85.9688 22.6264 85.6914 23.1802 85.5337 23.3111C85.3206 23.488 85.2773 23.8118 85.3652 24.5713C85.472 25.4933 85.4329 25.6407 84.9658 26.0762C84.4986 26.512 84.4481 26.7025 84.4481 28.0312C84.4481 28.8409 84.5351 29.6658 84.6413 29.8644C84.8254 30.2083 84.8985 30.2026 86.1849 29.7432C87.0736 29.4259 87.7736 29.2966 88.2324 29.3653C88.6158 29.4226 89.5225 29.4147 90.2472 29.3476L91.565 29.2257L91.6976 27.4699C91.7705 26.5041 91.9483 25.3215 92.0926 24.8418C92.3233 24.0755 92.3154 23.9205 92.0277 23.5653C91.7497 23.2219 91.7229 22.8791 91.8498 21.29C91.9321 20.261 92.1519 18.8553 92.3385 18.1662C92.5585 17.3532 92.6095 16.8452 92.4836 16.7193C92.3769 16.6126 91.5623 16.5033 90.6733 16.4765C89.3269 16.4359 88.9798 16.3551 88.5942 15.9929C88.2476 15.6672 87.8337 15.5427 86.9453 15.4969L85.7593 15.4357L85.8132 14.4346C85.8713 13.3552 85.9206 13.4251 83.5039 11.1608L82.8584 10.556L80.4167 10.5624C78.6248 10.567 77.8758 10.6439 77.602 10.8512C77.373 11.0247 77.0059 11.0892 76.6514 11.0182C75.9714 10.8823 74.0011 11.451 73.3175 11.9806C73.0563 12.183 72.6789 12.3485 72.4788 12.3485C72.2788 12.3485 71.9347 12.5422 71.7142 12.7788C71.3602 13.1589 71.3279 13.3803 71.4374 14.6763C71.5523 16.0359 71.5267 16.1805 71.0874 16.6481C70.6646 17.0982 70.6069 17.3663 70.5538 19.1285C70.4974 20.9977 70.5198 21.1264 70.9681 21.5163C71.5307 22.0054 71.6239 22.9829 71.1738 23.6727C70.9191 24.0631 70.9029 24.3483 71.0776 25.3657C71.1932 26.0386 71.3947 27.3959 71.5255 28.3817C71.6562 29.3676 71.8499 30.2863 71.9558 30.4232C72.0648 30.5642 72.5914 30.6735 73.1696 30.6751C73.7313 30.6767 74.4149 30.8024 74.6888 30.9544C75.347 31.3196 75.3208 31.3199 76.208 30.9361ZM76.282 25.8918C76.159 25.6621 76.0864 25.232 76.1205 24.9362C76.1712 24.4965 76.3224 24.3638 76.949 24.2091C78.1046 23.9237 78.7718 24.3602 78.7718 25.4018V26.1909L77.6387 26.2502C76.6581 26.3016 76.4755 26.2534 76.282 25.8918ZM75.8191 19.1767C75.765 19.0893 75.6586 18.6862 75.5826 18.281C75.4485 17.5661 75.4731 17.526 76.411 16.9302C77.6685 16.1313 78.2239 15.9975 78.6236 16.3971C78.8943 16.6679 78.9045 16.8301 78.6947 17.5304C78.4914 18.2089 78.3079 18.4085 77.6149 18.7052C76.3739 19.2366 75.9284 19.3535 75.8191 19.1767ZM99.1628 30.0899C101.264 29.5594 104.78 29.0745 106.506 29.0769C107.3 29.0779 107.95 29.0532 107.95 29.0218C107.95 28.9905 107.742 28.4303 107.487 27.777C107.004 26.5382 106.862 26.4547 105.66 26.7053C105.313 26.7777 105.249 26.6597 105.162 25.7925L105.062 24.7967L103.817 24.7374L102.573 24.6781L102.596 24.0403C102.609 23.6895 102.677 23.1348 102.747 22.8077C102.869 22.2361 102.932 22.2051 104.367 22.011L105.859 21.8091L105.916 20.0142C105.954 18.784 105.892 18.1122 105.716 17.8789C105.476 17.5586 105.412 17.5604 104.64 17.9095C104.056 18.1738 103.553 18.2505 102.89 18.1758C101.832 18.0566 101.646 17.8303 101.546 16.541L101.477 15.6575L103.065 15.2919L104.654 14.9263L104.983 15.3636C105.251 15.7185 105.493 15.7941 106.266 15.7648C106.79 15.745 107.339 15.6294 107.485 15.508C107.842 15.2118 107.866 10.3521 107.512 9.99834C107.188 9.67414 106.322 9.69767 105.415 10.0554C103.673 10.742 99.6666 11.3527 96.9033 11.3527C94.2815 11.3527 94.2123 11.3638 94.1028 11.8008C94.041 12.0473 94.1249 12.8315 94.2892 13.5436C94.4535 14.2556 94.5791 15.4124 94.5682 16.1141C94.5502 17.2824 94.4891 17.4559 93.8438 18.1701L93.1391 18.9502L93.5044 20.4172C93.785 21.5442 93.8428 22.2988 93.7537 23.6739C93.6447 25.3569 93.6636 25.4808 94.0713 25.7515C94.4707 26.0167 94.5039 26.1987 94.4933 28.0704C94.4821 30.0313 94.4959 30.0972 94.8923 29.9781C95.1181 29.9103 95.6302 29.804 96.0302 29.742C96.6331 29.6485 96.796 29.7013 96.9832 30.0511C97.2585 30.5655 97.2774 30.5658 99.1628 30.0899Z" fill="#CCA146"/>
</svg>
