<svg enable-background="new 0 0 1920 215.1" viewBox="0 0 1920 215.1" xmlns="http://www.w3.org/2000/svg"><g fill="#10122d"><path d="m0 71c26.9.2 53.8 1.2 80.7 2.8 12.8.7 25.6 1 38.3 2.5 24.3 3 48.8 4.7 73.1 8.3 19 2.8 38 5.8 57 8.8 14.6 2.3 29 5.6 43.5 8.5 51.6 10.4 102.3 24 152.4 40 17.6 5.6 35 11.8 53 16.3 28.2 7.1 56.7 12.7 85.4 17.1 16.6 2.5 33.2 4.5 49.8 6.5 13.8 1.7 27.8 3 41.6 3 25.3 0 50.5 2.1 75.8.6 19.7-1.2 39.5-1.5 59.2-3.1 17.4-1.4 34.7-3.2 51.9-5.6 16.2-2.3 32.4-5.1 48.5-8.2 40.1-7.6 79.5-18 118.3-30.4 31.6-10.1 62.4-22.3 92.7-35.7 19.2-8.4 38.3-17.2 56.6-27.4 23.8-13.3 48.3-24.8 73.9-33.8 40.8-14.4 82.6-25.2 125.6-31.2 24-3.4 66.9-8.8 83.6-8.8h48c9.8 0 46 3.9 63.3 5.9 22.4 2.5 44.7 5.9 66.7 10.5 51.7 10.7 102.1 25.9 150.7 46.7 31.1 13.3 62.8 24.7 95.4 33.4 11.5 3.1 22.9 6.8 34.8 8.5v109.1h-1919.8z" opacity=".4"/><path d="m0 115c.7-.1 1.3-.1 2-.2 31.6-8.2 62.8-17.7 93.1-30 7-2.8 13.8-5.8 20.7-8.9 17.8-7.9 35.3-16.2 53.5-23.2 31.1-11.9 62.7-22.3 95.1-30.2 25.8-6.3 51.9-11.5 78.3-14.9 20.3-2.5 59.1-6.6 102.3-6.6s86.6 7.8 102 9.8c13 1.7 25.8 5 38.6 7.9 24.1 5.4 47.7 12.5 70.8 21 22.5 8.3 44.7 17.5 65.5 29.6 36.7 21.5 74.2 41.3 113.3 58.1 32.4 13.9 65.4 26 99 36 28 8.4 56.4 15.4 85.2 21 17.8 3.5 35.6 6.9 53.6 9.2 11.5 1.5 23.1 2.3 34.6 3.8 17.2 2.2 34.4 2.8 51.7 3.2 38.8.9 77.5 1.2 116.2-2.8 10.2-1 20.5-1.7 30.7-3.2 13.6-2 27.2-4.3 40.8-6.5 31.3-5.1 62-12.3 92.2-21.9 19.4-6.1 38.3-13.6 57.6-19.9 56.6-18.3 113.9-33.8 172.4-44.8 26.3-4.9 52.6-9.3 79.1-12.9 19.6-2.6 39.2-4.8 58.8-6.6 7.9-.7 15.7-1.4 23.6-1.9 12.5-.9 25-1.5 37.5-2.1 17.3-.8 34.6-1.6 51.9-1.1v138.1h-1920.1z" opacity=".3"/></g></svg>