<svg width="72" height="72" viewBox="0 0 72 72" fill="none" xmlns="http://www.w3.org/2000/svg">
<circle cx="36" cy="36" r="35.5" fill="#EFEEEE" fill-opacity="0.05" stroke="#EFEEEE"/>
<path d="M51.9337 26.6866C50.759 27.2071 49.4972 27.5588 48.1706 27.7178C49.5394 26.8988 50.5634 25.6097 51.0517 24.0911C49.7656 24.855 48.3582 25.3927 46.8904 25.6808C45.9034 24.6269 44.596 23.9284 43.1713 23.6937C41.7466 23.4589 40.2843 23.7011 39.0113 24.3827C37.7384 25.0642 36.726 26.1469 36.1315 27.4628C35.537 28.7786 35.3935 30.2539 35.7233 31.6596C33.1175 31.5288 30.5683 30.8515 28.2412 29.6717C25.9141 28.4919 23.8611 26.836 22.2153 24.8114C21.6526 25.7821 21.3291 26.9075 21.3291 28.1061C21.3284 29.1851 21.5942 30.2475 22.1026 31.1992C22.6111 32.1509 23.3466 32.9624 24.2439 33.5616C23.2033 33.5285 22.1856 33.2473 21.2756 32.7414V32.8258C21.2755 34.3392 21.799 35.806 22.7572 36.9773C23.7154 38.1486 25.0494 38.9523 26.5328 39.2521C25.5674 39.5133 24.5553 39.5518 23.5729 39.3646C23.9914 40.6667 24.8066 41.8054 25.9045 42.6212C27.0023 43.437 28.3277 43.8891 29.6952 43.9141C27.3738 45.7365 24.5068 46.725 21.5556 46.7207C21.0328 46.7208 20.5104 46.6903 19.9912 46.6292C22.9869 48.5554 26.4742 49.5776 30.0357 49.5736C42.0918 49.5736 48.6826 39.5883 48.6826 30.9281C48.6826 30.6467 48.6756 30.3626 48.6629 30.0812C49.9449 29.1541 51.0515 28.0061 51.9309 26.6909L51.9337 26.6866Z" fill="#EFEEEE"/>
</svg>
