<?xml version="1.0" standalone="no"?>
<!DOCTYPE svg PUBLIC "-//W3C//DTD SVG 20010904//EN"
 "http://www.w3.org/TR/2001/REC-SVG-20010904/DTD/svg10.dtd">
<svg version="1.0" xmlns="http://www.w3.org/2000/svg"
 width="49.000000pt" height="49.000000pt" viewBox="0 0 49.000000 49.000000"
 preserveAspectRatio="xMidYMid meet">

<g transform="translate(0.000000,49.000000) scale(0.100000,-0.100000)"
fill="#000000" stroke="none">
<path d="M217 360 c-65 -10 -124 -21 -132 -24 -9 -3 -15 -18 -15 -37 l0 -32
80 7 c44 3 86 9 95 12 13 5 15 -5 15 -63 0 -101 -13 -107 -100 -42 -19 15 -48
29 -63 33 l-28 7 3 -73 3 -73 64 2 c89 2 111 9 111 34 l0 21 18 -20 c16 -20
21 -20 86 -9 48 8 70 17 71 27 2 14 -6 14 -60 6 -53 -8 -66 -6 -79 7 -20 19
-20 41 -2 57 8 6 16 30 18 53 3 42 3 42 52 49 69 10 76 14 76 48 0 29 -1 30
-47 29 -27 -1 -101 -9 -166 -19z m73 -109 c0 -22 -4 -43 -10 -46 -6 -4 -10 12
-10 39 0 25 5 46 10 46 6 0 10 -18 10 -39z m125 -127 c-23 -9 -126 -21 -118
-13 4 4 22 9 38 12 39 5 93 7 80 1z"/>
</g>
</svg>
